<mxfile host="app.diagrams.net" agent="Mozilla/5.0 (Windows NT 10.0; Win64; x64) AppleWebKit/537.36 (KHTML, like Gecko) Chrome/134.0.0.0 Safari/537.36" version="26.1.0">
  <diagram name="Page-1" id="9f46799a-70d6-7492-0946-bef42562c5a5">
    <mxGraphModel dx="1034" dy="1366" grid="1" gridSize="10" guides="1" tooltips="1" connect="1" arrows="1" fold="1" page="1" pageScale="1" pageWidth="1100" pageHeight="850" background="none" math="0" shadow="0">
      <root>
        <mxCell id="0" />
        <mxCell id="1" parent="0" />
        <mxCell id="78961159f06e98e8-17" value="&lt;font style=&quot;vertical-align: inherit;&quot;&gt;&lt;font style=&quot;vertical-align: inherit;&quot;&gt;Uuarios&lt;/font&gt;&lt;/font&gt;&lt;div&gt;&lt;font style=&quot;vertical-align: inherit;&quot;&gt;&lt;font style=&quot;vertical-align: inherit;&quot;&gt;&lt;br&gt;&lt;/font&gt;&lt;/font&gt;&lt;/div&gt;" style="swimlane;html=1;fontStyle=1;align=center;verticalAlign=top;childLayout=stackLayout;horizontal=1;startSize=26;horizontalStack=0;resizeParent=1;resizeLast=0;collapsible=1;marginBottom=0;swimlaneFillColor=#ffffff;rounded=0;shadow=0;comic=0;labelBackgroundColor=none;strokeWidth=1;fillColor=none;fontFamily=Verdana;fontSize=12" parent="1" vertex="1">
          <mxGeometry x="20" y="-130" width="260" height="430" as="geometry" />
        </mxCell>
        <mxCell id="78961159f06e98e8-21" value="&lt;font style=&quot;vertical-align: inherit;&quot;&gt;&lt;font style=&quot;vertical-align: inherit;&quot;&gt;&lt;font style=&quot;vertical-align: inherit;&quot;&gt;&lt;font style=&quot;vertical-align: inherit;&quot;&gt;&lt;font style=&quot;vertical-align: inherit;&quot;&gt;&lt;font style=&quot;vertical-align: inherit;&quot;&gt;+Identificación int&lt;/font&gt;&lt;/font&gt;&lt;/font&gt;&lt;/font&gt;&lt;/font&gt;&lt;/font&gt;" style="text;html=1;strokeColor=none;fillColor=none;align=left;verticalAlign=top;spacingLeft=4;spacingRight=4;whiteSpace=wrap;overflow=hidden;rotatable=0;points=[[0,0.5],[1,0.5]];portConstraint=eastwest;" parent="78961159f06e98e8-17" vertex="1">
          <mxGeometry y="26" width="260" height="26" as="geometry" />
        </mxCell>
        <mxCell id="78961159f06e98e8-23" value="&lt;font style=&quot;vertical-align: inherit;&quot;&gt;&lt;font style=&quot;vertical-align: inherit;&quot;&gt;&lt;font style=&quot;vertical-align: inherit;&quot;&gt;&lt;font style=&quot;vertical-align: inherit;&quot;&gt;&lt;font style=&quot;vertical-align: inherit;&quot;&gt;&lt;font style=&quot;vertical-align: inherit;&quot;&gt;+ nombre varchar&lt;/font&gt;&lt;/font&gt;&lt;/font&gt;&lt;/font&gt;&lt;/font&gt;&lt;/font&gt;" style="text;html=1;strokeColor=none;fillColor=none;align=left;verticalAlign=top;spacingLeft=4;spacingRight=4;whiteSpace=wrap;overflow=hidden;rotatable=0;points=[[0,0.5],[1,0.5]];portConstraint=eastwest;" parent="78961159f06e98e8-17" vertex="1">
          <mxGeometry y="52" width="260" height="26" as="geometry" />
        </mxCell>
        <mxCell id="78961159f06e98e8-25" value="&lt;font style=&quot;vertical-align: inherit;&quot;&gt;&lt;font style=&quot;vertical-align: inherit;&quot;&gt;&lt;font style=&quot;vertical-align: inherit;&quot;&gt;&lt;font style=&quot;vertical-align: inherit;&quot;&gt;+ clave varchar&lt;/font&gt;&lt;/font&gt;&lt;/font&gt;&lt;/font&gt;" style="text;html=1;strokeColor=none;fillColor=none;align=left;verticalAlign=top;spacingLeft=4;spacingRight=4;whiteSpace=wrap;overflow=hidden;rotatable=0;points=[[0,0.5],[1,0.5]];portConstraint=eastwest;" parent="78961159f06e98e8-17" vertex="1">
          <mxGeometry y="78" width="260" height="26" as="geometry" />
        </mxCell>
        <mxCell id="78961159f06e98e8-26" value="&lt;font style=&quot;vertical-align: inherit;&quot;&gt;&lt;font style=&quot;vertical-align: inherit;&quot;&gt;&lt;font style=&quot;vertical-align: inherit;&quot;&gt;&lt;font style=&quot;vertical-align: inherit;&quot;&gt;+ imagen varchar&lt;/font&gt;&lt;/font&gt;&lt;/font&gt;&lt;/font&gt;" style="text;html=1;strokeColor=none;fillColor=none;align=left;verticalAlign=top;spacingLeft=4;spacingRight=4;whiteSpace=wrap;overflow=hidden;rotatable=0;points=[[0,0.5],[1,0.5]];portConstraint=eastwest;" parent="78961159f06e98e8-17" vertex="1">
          <mxGeometry y="104" width="260" height="26" as="geometry" />
        </mxCell>
        <mxCell id="RVDY1MvP-D8Hmczx_MQF-2" value="&lt;font style=&quot;vertical-align: inherit;&quot;&gt;&lt;font style=&quot;vertical-align: inherit;&quot;&gt;&lt;font style=&quot;vertical-align: inherit;&quot;&gt;&lt;font style=&quot;vertical-align: inherit;&quot;&gt;&lt;font style=&quot;vertical-align: inherit;&quot;&gt;&lt;font style=&quot;vertical-align: inherit;&quot;&gt;+ tipo enum(Administrado(a)r,Propietaro(a))&lt;/font&gt;&lt;/font&gt;&lt;/font&gt;&lt;/font&gt;&lt;/font&gt;&lt;/font&gt;" style="text;html=1;strokeColor=none;fillColor=none;align=left;verticalAlign=top;spacingLeft=4;spacingRight=4;whiteSpace=wrap;overflow=hidden;rotatable=0;points=[[0,0.5],[1,0.5]];portConstraint=eastwest;" vertex="1" parent="78961159f06e98e8-17">
          <mxGeometry y="130" width="260" height="26" as="geometry" />
        </mxCell>
        <mxCell id="RVDY1MvP-D8Hmczx_MQF-3" value="&lt;font style=&quot;vertical-align: inherit;&quot;&gt;&lt;font style=&quot;vertical-align: inherit;&quot;&gt;&lt;font style=&quot;vertical-align: inherit;&quot;&gt;&lt;font style=&quot;vertical-align: inherit;&quot;&gt;&lt;font style=&quot;vertical-align: inherit;&quot;&gt;&lt;font style=&quot;vertical-align: inherit;&quot;&gt;+ correo varchar&lt;/font&gt;&lt;/font&gt;&lt;/font&gt;&lt;/font&gt;&lt;/font&gt;&lt;/font&gt;" style="text;html=1;strokeColor=none;fillColor=none;align=left;verticalAlign=top;spacingLeft=4;spacingRight=4;whiteSpace=wrap;overflow=hidden;rotatable=0;points=[[0,0.5],[1,0.5]];portConstraint=eastwest;" vertex="1" parent="78961159f06e98e8-17">
          <mxGeometry y="156" width="260" height="26" as="geometry" />
        </mxCell>
        <mxCell id="RVDY1MvP-D8Hmczx_MQF-5" value="&lt;font style=&quot;vertical-align: inherit;&quot;&gt;&lt;font style=&quot;vertical-align: inherit;&quot;&gt;&lt;font style=&quot;vertical-align: inherit;&quot;&gt;&lt;font style=&quot;vertical-align: inherit;&quot;&gt;&lt;font style=&quot;vertical-align: inherit;&quot;&gt;&lt;font style=&quot;vertical-align: inherit;&quot;&gt;&lt;font style=&quot;vertical-align: inherit;&quot;&gt;&lt;font style=&quot;vertical-align: inherit;&quot;&gt;&lt;font style=&quot;vertical-align: inherit;&quot;&gt;&lt;font style=&quot;vertical-align: inherit;&quot;&gt;&lt;font style=&quot;vertical-align: inherit;&quot;&gt;&lt;font style=&quot;vertical-align: inherit;&quot;&gt;&lt;font style=&quot;vertical-align: inherit;&quot;&gt;&lt;font style=&quot;vertical-align: inherit;&quot;&gt;+ descripción varchar&lt;/font&gt;&lt;/font&gt;&lt;/font&gt;&lt;/font&gt;&lt;/font&gt;&lt;/font&gt;&lt;/font&gt;&lt;/font&gt;&lt;/font&gt;&lt;/font&gt;&lt;/font&gt;&lt;/font&gt;&lt;/font&gt;&lt;/font&gt;&lt;div&gt;&lt;br&gt;&lt;div&gt;&lt;font style=&quot;vertical-align: inherit;&quot;&gt;&lt;font style=&quot;vertical-align: inherit;&quot;&gt;&lt;font style=&quot;vertical-align: inherit;&quot;&gt;&lt;font style=&quot;vertical-align: inherit;&quot;&gt;&lt;span style=&quot;color: rgba(0, 0, 0, 0); font-family: monospace; font-size: 0px; text-wrap-mode: nowrap;&quot;&gt;&lt;font style=&quot;vertical-align: inherit;&quot;&gt;&lt;font style=&quot;vertical-align: inherit;&quot;&gt;&lt;font style=&quot;vertical-align: inherit;&quot;&gt;&lt;font style=&quot;vertical-align: inherit;&quot;&gt;&lt;font style=&quot;vertical-align: inherit;&quot;&gt;&lt;font style=&quot;vertical-align: inherit;&quot;&gt;&lt;font style=&quot;vertical-align: inherit;&quot;&gt;&lt;font style=&quot;vertical-align: inherit;&quot;&gt;&lt;font style=&quot;vertical-align: inherit;&quot;&gt;&lt;font style=&quot;vertical-align: inherit;&quot;&gt;&lt;font style=&quot;vertical-align: inherit;&quot;&gt;&lt;font style=&quot;vertical-align: inherit;&quot;&gt;%3CmxGraphModelo%3E%3Croot%3D%220%22%2F%3E%3CmxCell%20id%3B%22%26t%3B%26t%3B%26t%3B%26t%3B%26t%3B%26t%3B%26t%3B%26t%3B%26t%3B%26t%3B%26t%3B%26t%3B%26t%3B%26t%3B%26t%3B%26t%3B%26t%3B%26t%3B%26t%3B%26t%3B%26t%3B%26t%3B%26t%3B%26t%3B%26t%3B%26t%3B%26t%3B%26t%3B%26t%3B%2623Bhtml%3Dnone%3BstrokeColor%3Dvertical%3Bspacing%3Db1%2C0,5%5D%2C%5B1%2C0,5%5D%5D%2C%3B1%2C05B1%2C0,5%5D%5D%2C%20vertex%3B%22%20parent%3D%22%3E%3CmxGeometría%222%2Fmx%3E%3C%22geometría%22%2Froot%3E%3C%2FmxGr v&lt;/font&gt;&lt;/font&gt;&lt;/font&gt;&lt;/font&gt;&lt;/font&gt;&lt;/font&gt;&lt;/font&gt;&lt;/font&gt;&lt;/font&gt;&lt;/font&gt;&lt;/font&gt;&lt;/font&gt;&lt;/span&gt;&lt;/font&gt;&lt;/font&gt;&lt;/font&gt;&lt;/font&gt;&lt;/div&gt;&lt;/div&gt;" style="text;html=1;strokeColor=none;fillColor=none;align=left;verticalAlign=top;spacingLeft=4;spacingRight=4;whiteSpace=wrap;overflow=hidden;rotatable=0;points=[[0,0.5],[1,0.5]];portConstraint=eastwest;" vertex="1" parent="78961159f06e98e8-17">
          <mxGeometry y="182" width="260" height="26" as="geometry" />
        </mxCell>
        <mxCell id="RVDY1MvP-D8Hmczx_MQF-4" value="&lt;font style=&quot;vertical-align: inherit;&quot;&gt;&lt;font style=&quot;vertical-align: inherit;&quot;&gt;&lt;font style=&quot;vertical-align: inherit;&quot;&gt;&lt;font style=&quot;vertical-align: inherit;&quot;&gt;&lt;font style=&quot;vertical-align: inherit;&quot;&gt;&lt;font style=&quot;vertical-align: inherit;&quot;&gt;+ celular&amp;nbsp; varchar&lt;/font&gt;&lt;/font&gt;&lt;/font&gt;&lt;/font&gt;&lt;/font&gt;&lt;/font&gt;&lt;div&gt;&lt;font style=&quot;vertical-align: inherit;&quot;&gt;&lt;font style=&quot;vertical-align: inherit;&quot;&gt;&lt;font style=&quot;vertical-align: inherit;&quot;&gt;&lt;font style=&quot;vertical-align: inherit;&quot;&gt;&lt;span style=&quot;color: rgba(0, 0, 0, 0); font-family: monospace; font-size: 0px; text-wrap-mode: nowrap;&quot;&gt;&lt;font style=&quot;vertical-align: inherit;&quot;&gt;&lt;font style=&quot;vertical-align: inherit;&quot;&gt;&lt;font style=&quot;vertical-align: inherit;&quot;&gt;&lt;font style=&quot;vertical-align: inherit;&quot;&gt;%3CmxGraphModel%3E%3Croot%3D%220%22%2F%3E%3CmxCell%20id%3D%22%22%22%20valor%3D%222%26lt%3Cfont%20style%3Bvertical-align%26quot%3B%26gt%3B%26gt%3B%26gt%3B%26gt%3B%26gt%3B%26t%3B%26t%3B%26t%3B%26t%3B%26t%3B%26t%3B%26t%3B%26t%3B%26t%3B%26t%3B%26t%3B%26t%3B%26t%3B%26t%3B%26t%3B%26t%3B%2622%20style%3D%22text%3Bhtml%3Dnone%3BstrokeColor%3Bvertical%3Bspacing%3Dvertical%3Bspacing%3Db1%2C0.5%5D%2C%5B1%2C0.5%5D%5D%2C%3B1%2C0.5%5D%5D%2C%3B1%2C05B1%2C0.5%5D%5D%2C%20vertex%3B%22%20parent%3D%22%3E%3CmxGeometry%20x%3D%222%200%3D%222%20as3D%222%20height%3D%22geometría%22%2Fmx%3E%3C%2Froot%3E%3C%2FmxGraphModel%3E varc&lt;/font&gt;&lt;/font&gt;&lt;/font&gt;&lt;/font&gt;&lt;/span&gt;&lt;/font&gt;&lt;/font&gt;&lt;/font&gt;&lt;/font&gt;&lt;/div&gt;" style="text;html=1;strokeColor=none;fillColor=none;align=left;verticalAlign=top;spacingLeft=4;spacingRight=4;whiteSpace=wrap;overflow=hidden;rotatable=0;points=[[0,0.5],[1,0.5]];portConstraint=eastwest;" vertex="1" parent="78961159f06e98e8-17">
          <mxGeometry y="208" width="260" height="26" as="geometry" />
        </mxCell>
        <mxCell id="RVDY1MvP-D8Hmczx_MQF-6" value="&lt;font style=&quot;vertical-align: inherit;&quot;&gt;&lt;font style=&quot;vertical-align: inherit;&quot;&gt;&lt;font style=&quot;vertical-align: inherit;&quot;&gt;&lt;font style=&quot;vertical-align: inherit;&quot;&gt;&lt;font style=&quot;vertical-align: inherit;&quot;&gt;&lt;font style=&quot;vertical-align: inherit;&quot;&gt;&lt;font style=&quot;vertical-align: inherit;&quot;&gt;&lt;font style=&quot;vertical-align: inherit;&quot;&gt;&lt;font style=&quot;vertical-align: inherit;&quot;&gt;&lt;font style=&quot;vertical-align: inherit;&quot;&gt;&lt;font style=&quot;vertical-align: inherit;&quot;&gt;&lt;font style=&quot;vertical-align: inherit;&quot;&gt;+ codigo_verificacion int&lt;/font&gt;&lt;/font&gt;&lt;/font&gt;&lt;/font&gt;&lt;/font&gt;&lt;/font&gt;&lt;/font&gt;&lt;/font&gt;&lt;/font&gt;&lt;/font&gt;&lt;/font&gt;&lt;/font&gt;&lt;div&gt;&lt;br&gt;&lt;div&gt;&lt;font style=&quot;vertical-align: inherit;&quot;&gt;&lt;font style=&quot;vertical-align: inherit;&quot;&gt;&lt;font style=&quot;vertical-align: inherit;&quot;&gt;&lt;font style=&quot;vertical-align: inherit;&quot;&gt;&lt;span style=&quot;color: rgba(0, 0, 0, 0); font-family: monospace; font-size: 0px; text-wrap-mode: nowrap;&quot;&gt;&lt;font style=&quot;vertical-align: inherit;&quot;&gt;&lt;font style=&quot;vertical-align: inherit;&quot;&gt;&lt;font style=&quot;vertical-align: inherit;&quot;&gt;&lt;font style=&quot;vertical-align: inherit;&quot;&gt;&lt;font style=&quot;vertical-align: inherit;&quot;&gt;&lt;font style=&quot;vertical-align: inherit;&quot;&gt;&lt;font style=&quot;vertical-align: inherit;&quot;&gt;&lt;font style=&quot;vertical-align: inherit;&quot;&gt;&lt;font style=&quot;vertical-align: inherit;&quot;&gt;&lt;font style=&quot;vertical-align: inherit;&quot;&gt;%3CmxGraphModelo%3E%3Croot%3D%220%22%2F%3E%3CmxCell%20id%3D%22%22%26lt%3B%26gt%3B%26t%3B%26t%3B%26t%3B%26t%3B%26t%3B%26t%3B%26t%3B%26t%3B%26t%3B%26t%3B%26t%3B%26t%3B%26t%3B%26t%3B%26t%3B%26t%3B%26t%3B%26t%3B%26t%3B%26t%3B%26t%3B%26t%3B%26t%3B%26t%3B%26t%3B%26t%3B%2623Bhtml%3Dnone%3BstrokeColor%3Dvertical%3Bspacing%3Db1%2C0,5%5D%2C%5B1%2C0,5%5D%5D%2C%3B1%2C05B1%2C0,5%5D%5D%2C%20vertex%3B%22%20parent%3D%22%3E%3CmxGeometría%222%20as3D%222%2Fmx%3E%3C%22geometría%22%2Froot%3E%3C%22&lt;/font&gt;&lt;/font&gt;&lt;/font&gt;&lt;/font&gt;&lt;/font&gt;&lt;/font&gt;&lt;/font&gt;&lt;/font&gt;&lt;/font&gt;&lt;/font&gt;&lt;/span&gt;&lt;/font&gt;&lt;/font&gt;&lt;/font&gt;&lt;/font&gt;&lt;/div&gt;&lt;/div&gt;" style="text;html=1;strokeColor=none;fillColor=none;align=left;verticalAlign=top;spacingLeft=4;spacingRight=4;whiteSpace=wrap;overflow=hidden;rotatable=0;points=[[0,0.5],[1,0.5]];portConstraint=eastwest;" vertex="1" parent="78961159f06e98e8-17">
          <mxGeometry y="234" width="260" height="26" as="geometry" />
        </mxCell>
        <mxCell id="RVDY1MvP-D8Hmczx_MQF-7" value="&lt;font style=&quot;vertical-align: inherit;&quot;&gt;&lt;font style=&quot;vertical-align: inherit;&quot;&gt;&lt;font style=&quot;vertical-align: inherit;&quot;&gt;&lt;font style=&quot;vertical-align: inherit;&quot;&gt;&lt;font style=&quot;vertical-align: inherit;&quot;&gt;&lt;font style=&quot;vertical-align: inherit;&quot;&gt;&lt;font style=&quot;vertical-align: inherit;&quot;&gt;&lt;font style=&quot;vertical-align: inherit;&quot;&gt;&lt;font style=&quot;vertical-align: inherit;&quot;&gt;&lt;font style=&quot;vertical-align: inherit;&quot;&gt;&lt;font style=&quot;vertical-align: inherit;&quot;&gt;&lt;font style=&quot;vertical-align: inherit;&quot;&gt;+ fecha_expiracion datetime&lt;/font&gt;&lt;/font&gt;&lt;/font&gt;&lt;/font&gt;&lt;/font&gt;&lt;/font&gt;&lt;/font&gt;&lt;/font&gt;&lt;/font&gt;&lt;/font&gt;&lt;/font&gt;&lt;/font&gt;&lt;div&gt;&lt;br&gt;&lt;/div&gt;&lt;div&gt;&lt;br&gt;&lt;div&gt;&lt;br&gt;&lt;div&gt;&lt;font style=&quot;vertical-align: inherit;&quot;&gt;&lt;font style=&quot;vertical-align: inherit;&quot;&gt;&lt;font style=&quot;vertical-align: inherit;&quot;&gt;&lt;font style=&quot;vertical-align: inherit;&quot;&gt;&lt;span style=&quot;color: rgba(0, 0, 0, 0); font-family: monospace; font-size: 0px; text-wrap-mode: nowrap;&quot;&gt;&lt;font style=&quot;vertical-align: inherit;&quot;&gt;&lt;font style=&quot;vertical-align: inherit;&quot;&gt;&lt;font style=&quot;vertical-align: inherit;&quot;&gt;&lt;font style=&quot;vertical-align: inherit;&quot;&gt;&lt;font style=&quot;vertical-align: inherit;&quot;&gt;&lt;font style=&quot;vertical-align: inherit;&quot;&gt;&lt;font style=&quot;vertical-align: inherit;&quot;&gt;&lt;font style=&quot;vertical-align: inherit;&quot;&gt;&lt;font style=&quot;vertical-align: inherit;&quot;&gt;&lt;font style=&quot;vertical-align: inherit;&quot;&gt;%3CmxGraphModelo%3E%3Croot%3D%220%22%2F%3E%3CmxCell%20id%3D%22%22%26lt%3B%26gt%3B%26t%3B%26t%3B%26t%3B%26t%3B%26t%3B%26t%3B%26t%3B%26t%3B%26t%3B%26t%3B%26t%3B%26t%3B%26t%3B%26t%3B%26t%3B%26t%3B%26t%3B%26t%3B%26t%3B%26t%3B%26t%3B%26t%3B%26t%3B%26t%3B%26t%3B%26t%3B%2623Bhtml%3Dnone%3BstrokeColor%3Dvertical%3Bspacing%3Db1%2C0,5%5D%2C%5B1%2C0,5%5D%5D%2C%3B1%2C05B1%2C0,5%5D%5D%2C%20vertex%3B%22%20parent%3D%22%3E%3CmxGeometría%222%20as3D%222%2Fmx%3E%3C%22geometría%22%2Froot%3E%3C%2F&amp;nbsp;&lt;/font&gt;&lt;/font&gt;&lt;/font&gt;&lt;/font&gt;&lt;/font&gt;&lt;/font&gt;&lt;/font&gt;&lt;/font&gt;&lt;/font&gt;&lt;/font&gt;&lt;/span&gt;&lt;/font&gt;&lt;/font&gt;&lt;/font&gt;&lt;/font&gt;&lt;/div&gt;&lt;/div&gt;&lt;/div&gt;" style="text;html=1;strokeColor=none;fillColor=none;align=left;verticalAlign=top;spacingLeft=4;spacingRight=4;whiteSpace=wrap;overflow=hidden;rotatable=0;points=[[0,0.5],[1,0.5]];portConstraint=eastwest;" vertex="1" parent="78961159f06e98e8-17">
          <mxGeometry y="260" width="260" height="26" as="geometry" />
        </mxCell>
        <mxCell id="78961159f06e98e8-19" value="" style="line;html=1;strokeWidth=1;fillColor=none;align=left;verticalAlign=middle;spacingTop=-1;spacingLeft=3;spacingRight=3;rotatable=0;labelPosition=right;points=[];portConstraint=eastwest;" parent="78961159f06e98e8-17" vertex="1">
          <mxGeometry y="286" width="260" height="38" as="geometry" />
        </mxCell>
        <mxCell id="RVDY1MvP-D8Hmczx_MQF-8" value="&lt;div&gt;&lt;div&gt;&lt;font style=&quot;vertical-align: inherit;&quot;&gt;&lt;font style=&quot;vertical-align: inherit;&quot;&gt;Propietario(a)&lt;/font&gt;&lt;/font&gt;&lt;br&gt;&lt;div&gt;&lt;font style=&quot;vertical-align: inherit;&quot;&gt;&lt;font style=&quot;vertical-align: inherit;&quot;&gt;&lt;font style=&quot;vertical-align: inherit;&quot;&gt;&lt;font style=&quot;vertical-align: inherit;&quot;&gt;&lt;span style=&quot;color: rgba(0, 0, 0, 0); font-family: monospace; font-size: 0px; text-wrap-mode: nowrap;&quot;&gt;&lt;font style=&quot;vertical-align: inherit;&quot;&gt;&lt;font style=&quot;vertical-align: inherit;&quot;&gt;&lt;font style=&quot;vertical-align: inherit;&quot;&gt;&lt;font style=&quot;vertical-align: inherit;&quot;&gt;&lt;font style=&quot;vertical-align: inherit;&quot;&gt;&lt;font style=&quot;vertical-align: inherit;&quot;&gt;&lt;font style=&quot;vertical-align: inherit;&quot;&gt;&lt;font style=&quot;vertical-align: inherit;&quot;&gt;&lt;font style=&quot;vertical-align: inherit;&quot;&gt;&lt;font style=&quot;vertical-align: inherit;&quot;&gt;%3CmxGraphModelo%3E%3Croot%3D%220%22%2F%3E%3CmxCell%20id%3D%22%22%26lt%3B%26gt%3B%26t%3B%26t%3B%26t%3B%26t%3B%26t%3B%26t%3B%26t%3B%26t%3B%26t%3B%26t%3B%26t%3B%26t%3B%26t%3B%26t%3B%26t%3B%26t%3B%26t%3B%26t%3B%26t%3B%26t%3B%26t%3B%26t%3B%26t%3B%26t%3B%26t%3B%26t%3B%2623Bhtml%3Dnone%3BstrokeColor%3Dvertical%3Bspacing%3Db1%2C0,5%5D%2C%5B1%2C0,5%5D%5D%2C%3B1%2C05B1%2C0,5%5D%5D%2C%20vertex%3B%22%20parent%3D%22%3E%3CmxGeometría%222%20as3D%222%2Fmx%3E%3C%22geometría%22%2Froot%3E&lt;/font&gt;&lt;/font&gt;&lt;/font&gt;&lt;/font&gt;&lt;/font&gt;&lt;/font&gt;&lt;/font&gt;&lt;/font&gt;&lt;/font&gt;&lt;/font&gt;&lt;/span&gt;&lt;/font&gt;&lt;/font&gt;&lt;/font&gt;&lt;/font&gt;&lt;/div&gt;&lt;/div&gt;&lt;/div&gt;" style="text;html=1;strokeColor=none;fillColor=none;align=left;verticalAlign=top;spacingLeft=4;spacingRight=4;whiteSpace=wrap;overflow=hidden;rotatable=0;points=[[0,0.5],[1,0.5]];portConstraint=eastwest;" vertex="1" parent="78961159f06e98e8-17">
          <mxGeometry y="324" width="260" height="26" as="geometry" />
        </mxCell>
        <mxCell id="RVDY1MvP-D8Hmczx_MQF-9" value="&lt;font style=&quot;vertical-align: inherit;&quot;&gt;&lt;font style=&quot;vertical-align: inherit;&quot;&gt;&lt;font style=&quot;vertical-align: inherit;&quot;&gt;&lt;font style=&quot;vertical-align: inherit;&quot;&gt;&lt;font style=&quot;vertical-align: inherit;&quot;&gt;&lt;font style=&quot;vertical-align: inherit;&quot;&gt;&lt;font style=&quot;vertical-align: inherit;&quot;&gt;&lt;font style=&quot;vertical-align: inherit;&quot;&gt;&lt;font style=&quot;vertical-align: inherit;&quot;&gt;&lt;font style=&quot;vertical-align: inherit;&quot;&gt;&lt;font style=&quot;vertical-align: inherit;&quot;&gt;&lt;font style=&quot;vertical-align: inherit;&quot;&gt;+ Crear&amp;nbsp; Usuario&lt;/font&gt;&lt;/font&gt;&lt;/font&gt;&lt;/font&gt;&lt;/font&gt;&lt;/font&gt;&lt;/font&gt;&lt;/font&gt;&lt;/font&gt;&lt;/font&gt;&lt;/font&gt;&lt;/font&gt;&lt;span style=&quot;color: rgba(0, 0, 0, 0); font-family: monospace; font-size: 0px; text-wrap-mode: nowrap;&quot;&gt;&lt;font style=&quot;vertical-align: inherit;&quot;&gt;&lt;font style=&quot;vertical-align: inherit;&quot;&gt;%3CmxGraphModel%3E%3Croot%3E%3CmxCell%20id%3D%220%22%2F%3E%3CmxCell%20id%3D%22%22%22%22%20value%3D%22%22%26lt%3Cfont%20style%3Bvertical-align%3B%26cot%3B%26ct%3B%26cot%3Bvertical-align%3B%26cot%3B%26cot%3B%26cot%3B%26cot%3B%26cot%3Bfont%26cot%3B%26cot%3B3D%26cot%3Bvertical-align%3Bfont%26cot%3Bvertical-align%3A%20inherit%3B%26quot%3B%26cot%3B%26cot%3B%26cot%3B%26cot%3B%26ct%3B%26ct%3B%26cot%3B%26cot%3B%26cot%3B%26cot%3B%26ct%3B%26ct%3B%26ct%3B%26ct%3B%26ct%3B26ct%3Bvertical-align%3B%26cot%3B%26cot%3B%26ct%3B%26ct%3B%26ct%3B%26ct%3B%26ct%3B%26ct%3B%26ct%3Bvertical-align%3B%26cot%3B%26cot%3B26ct%33D%26cuot%3Bvertical-alineador%3A%20inherit%3B%26quot%3B%26gt%3B%2B%20descripcion%26lt%3B%2Ffont%26gt%3B%26lt%3B%26font%26gt%3B%26lt%3B%26lt%3B%26lt%3B%26lt%3B%26lt%3B%26lt%3B%26lt%3B%26gt%26lt%3B%26lt%3B%26gt%26lt%3B%26lt%26lt%3B%26lt%26lt%3B%26lt%26lt%3B%26lt%26lt%3B%26lt%3B%26lt%3Bb%26gt%3Bb%26lt%3Bb%26gt%3Bb%26gt%3Bb%26gt%3Bb%26gt%3Bb%26gt%3B%26lt%3Bfont%26cot%3Bbvertical-align%3B%26cot%3B%26cót%3B%26cót%3B%26cót%3B%26cót%3B%26cót%3B%26cót3B%26gt%3B%26lt%3Bfont%26quot%3B%26inherit%3B%26cot%3B%26ct%3B%26ct%3B%26cot%3B26bvertical-align%3B%26cot%3B%26cot%3B%26cot%3B%26cot%3B%26ct%3B%26ct%3B%26ct%3B%26ct%3B%26ct%3Bcolor%3A%26c%3Bcolor%3A%20rgba(0%2C%200%2C%200%2C%200%2C%200)%3B%20font-family%3A%20monoespacio%3B%200px%3A%200px%3B%20text20nowrap%3B%26quot%3B%26gt%3B%26lt%3Bfont%26quot%3D%26quot%3B%26inherit%3B%26gt%3B%26gt%3B%26gt%3B%26gt%3B%26lt%3Bfont%20style%3D%26quot%3Bvertical-align%3A%26quot%3B%26quot%3B%26quot%3B%26quot%3B%26quot%3B%26gt%3B%26gt%3B%26gt%3B%26gt%3B%26gt%3B%26gt%3B%26gt%3B%26gt%3B%26gt%3B%26lt%3Bfont%20style%3D%26quot%3Bvertical-align%3B%26quot%3B%26bt%3B%26quot%3B%26inherit%3B%26bt%3B%26gt%3B%26gt%3B%26gt%3B%26bvertical-align%3B%26cot%3B%26bvertical-align%3B%26cot%3B%26bvertical-align%3B%26cot%3B%26gt%3B%26cot%3B%26cot%3B%26cot%3Bvertical-align%3B%26cot%3B%26cot%3B%26cot%3B%26cot%3B%26cot%3B%26cot%3B%26cot%32520id%253D%2522%2520valor%253D%2522%2526t%253B%2526gt%253B%2526t%253B%2526t%253B%2526t%253B%2526t%253B%2526t%253B%2526t%253B%2526t%253B%2526t%253B%2526t%253B%2526t%253B%2526t%253B%2526t%253B%2526t%253B%2526t%253B%2526t%253B%2526t%253B%2526t%253B%2526t%253B%2252C%255B1%252C0%2C5%255D%255D%252C%253B1%252C05B1%252C0%255D%252C%2520vertex%253B%2522%253CmxGeometr%C3%ADa%2520x%2522%2520as3D%2522%2520as3D%2522%2520as3D%25222%252Fmx%253E%253C%2522geometr%C3%ADa%2522%252Froot%253E%253C%2522FmxGra%26lt%3B%252Ffont%26gt%3B%26lt%3B%26lt%3B%26gt%3B%26lt%3B%26gt%3B%26lt%3B%26lt%32Fspan%26gt%3B%26lt%3B%26lt%3B%26lt%3B%26lt%3B%26lt%26lt%3B%26lt%26lt%3B%26lt%3B%26lt%3B%26lt%3B%2Fdiv%26gt%3B%22%20style%3B%22%20style%3D3BstrokeColor%3Dnone%3BfillColor%3Dnone%3Balign%3BverticalAlign%3BspacingLight%3D4%3BwhiteSpace%3Dwrap%3Brotatable%3D0%3Bpoints%5B0%2C0.5%5D%2C%5B1%2C0.5B1%2C0.5B1%2C0.5%5D%5D%3BportConstraint%3B%22%20vertex%3D%221%22%20parent%3D%221%22%3E%3CmxGeometría%20x%3D%2220%22%20y%3D%2220%22%20width%3D%22160%22%20height%3D%2226%22%20as%3D%22geometría%22%2F%3E%3C%2FmxCell%3E%3C%2Froot%3E%3C%2FmxGraphModel%3E&lt;/font&gt;&lt;/font&gt;&lt;/span&gt;&lt;div&gt;&lt;font style=&quot;vertical-align: inherit;&quot;&gt;&lt;font style=&quot;vertical-align: inherit;&quot;&gt;&lt;span style=&quot;color: rgba(0, 0, 0, 0); font-family: monospace; font-size: 0px; text-wrap-mode: nowrap;&quot;&gt;&lt;font style=&quot;vertical-align: inherit;&quot;&gt;&lt;font style=&quot;vertical-align: inherit;&quot;&gt;&lt;font style=&quot;vertical-align: inherit;&quot;&gt;&lt;font style=&quot;vertical-align: inherit;&quot;&gt;&lt;font style=&quot;vertical-align: inherit;&quot;&gt;&lt;font style=&quot;vertical-align: inherit;&quot;&gt;&lt;font style=&quot;vertical-align: inherit;&quot;&gt;&lt;font style=&quot;vertical-align: inherit;&quot;&gt;&lt;font style=&quot;vertical-align: inherit;&quot;&gt;&lt;font style=&quot;vertical-align: inherit;&quot;&gt;U%3CmxGraphModel%3E%3Croot%3E%3CmxCell%20id%3D%22%22%20value%3D%22%22%26lt%3B%26ct%3B%26ct%3B%26ct%3B%26ct%3B3B%26cot%3B3B%26cot%3B3B%26cot%3B3B%26cot%3B3B%26cot%3B3B%26cot%3B3B%26cot%3B3B%26cot%3B3B%26cot%3B3B%26cot%3B3B%26cot%3B3B%26cot%3B3B%26cot%3Bvertical-align%3B3B%26cot%3Bvertical-align%3Bfont%26ct%3B%26ct%3B%26ct%3B%26ct%3B%26ct%3B%26ct%3B%26ct%3B%26ct%3B%26ct%3B%26ct%3B%26ct%3B%26ct%3B%26ct%3B%26ct%3B%26ct%3B%26ct%3B%26ct%3B%26ct%3B%26ct%3B%26ct%3B%26ct%3B%26ct%3B%26ct%3B%26ct%3B%26ct%3B%26ct%3B%26ct%3B%26ct%3B%26ct%3B%26ct%26ct%26ct%3B%26ct%26l%26l%26l%26l%26l%26l%26l%26l%26l%26l%26l%26l%26l%26l%26l%26l%26l%26l%26l%26l%26l%26l%26l%26l%26l%26l%26l%26l%26l%26l%26l%26l%26l%26l%26l%26l%26l%26l%26l%26l%26l%26l%26l%26l%26l%26l%26l%26l%26l%26l%26l%26l%26l%26l%26l%26l%26l%26l%26l%26l%26l%26l%26l%26lót%3B%26cót%3B%26cót%3B%26cót%3B%26ct%3B%26ct%3B%26ct%3B%26ct%3B%26ct%3B%26ct%3B%26ct%3B%26ct%3B%26ct%3B%26ct%3B%26ct%3B%26ct%3B%26ct%3B%26ct%3B%26ct%3B%26ct%3B%26ct%3B%26ct%3B%26ct%3B%26ct%3B%26ct%3B%26ct%3B%26ct%3B%26ct%3B%26ct%3B%26gt%3B%26gt%3B%26gt%326gt%3B%26gt%3B%26gt%3B%26gt%3B%26gt%3B%26ct%3B%26ct%3B%26ct%3B%26ct%3B%26ct%3B%26gt%3B%26gt%3B%26gt%3B%26gt%3B%26gt%3B%26gt%3B%26gt%3B%26gt%3B%26gt%3B%26gt%3B%26bt%3B%26bt%3B%26bt%3B%26bt%3B%26bt%3B%26bt%3B%26bt%3B%26bt%3B%26bt%3B%26bt%3B%26bt%3B%26bt%3B26bt%3B%26bt%3B%26bt%3B%26bt%3B%26btvertical%3B%26btvertical%3B%26btvertical%3B%26btvertical%3B%26bt%3B%26bt%3B%26bt%3B%26cot%3B%26cot%3B%26cot%3B%26cot%3B%26cot%3B%26cot%3B%26cot%3B%26cot%3B%26cot%3B%26cot%3B%26cot%3B%26cot%3B%2522%2526t%253B%2526t%253B%2526t%253B%2526t%253B%2526t%253B26t%253B%2526t%253B%252C05B1%252C05B1%252C%252C05B1%252C%252C05B1%2522%2520as3D%2522%2520as3D%2522%2520as3D%2522%2520as3D%26lt%26lt%26lt%26lt%26lt%26lt%26lt%26lt%26lt%26lt%26lt%26lt%26lt%26lt%26lt%26lt%26lt%26lt%26lt%26lt%26lt%26lt%26lt%26lt%26lt%26lt%26lt%265B5D%5D%22%20vertex%3B%22%3CmxGeometría%22%22geometría%22%2FmxCell%3E%3C%22%20vertex%3B%22%20x%3D%22%22%3CmxGeometría%3D%22%20x%3D%22%20x%3D%22%20x%3D%22%22%3CmxGeometría%20x%3D%222%22%2FmxCell%3E%3C%2FmxGraphMode5%5D%5D%3B%22%20vertex%3B%22%20xGe22%3B%22%20xGe22%3B%22%20xGe22%3B%22%20xGe22%220%3D%2220%20%20%22%20as%3D%222geometría%22%2FmxGraphModeCREAT5D%5D%5D%22%20vertex%3D%22%20vertex%3D%22%20vertex%3D%22%20as%3D%22%20as%3D%22%22geometría%22%2FmxCell%3E%3C%22geometría%22%2FmxGraphMode5%5D%5D%3B%22%20vertex%3B%22%20parent%3D%22%20%22%3CmxGe3D%2220%200%2220%3D%2220%3D%2220%3D%2220%3D%2220%3D%2220%3D%2220%3D%22203C%22203C%2FmxGraphMode5%5D%5D%3BportConstraint%3B%22%20vertex%3D%22%20parent%3D%22%3CmxGeometría%20x%3D%2220%22%220%22%220%3D%22220%3D%2222geometría%22%2FmxCell%3E%3C%2FmxGraphModeCREAT5D%5D%5D%22%20vertex%3B%3B%22%20vertex%3D%22%20vertex%3D%22%204%3D%222%20as%3E%3C%22geometría%22%2FmxCell%3E%3C%22geometría%22%2FmxGraphMode5%5D%221%22%3C%220y%3D%2220%200%2220%200%3D%2220%3D%2220%3D%2220%3D%2220%3D%2220%3D%2220%3D%2220%3D%2220%3D%2220%3D%2220%3D%22222%20vertex%3B%22%221%22%20vertex%3D%22%220%220%220%220%220%220%220%220%220%220%220%220%200%3D%2220%220%203E%3C%2FmxGraphModeCREAT%3C%2FmxCell%3E%3C%2FmxGraphMode5%5D%5D%3B%22%20vertex%3D%22%20parent%3D%22%221%22%3CmxGeometría%20x%3D%2220%221%22%3C%220%220%220%3D%2220%20%3D%2220%20%3D%2222226%22%20as%3D%222geometría%22%2FmxCell%3E%3C%2FmxGraphModeCREAT%3C%3C%2FmxCell%3E%3C%2FmxCell%3E%3C%2FmxGraphMode5%5D%5D%3B%22%20vertex%3D%22%221%22%20parent%3D%221%22%3CmxGeometría%20x%3D%2220%22%20y%3D%2220%22%20width%3D%22260%22%20%3D%23C%2FmxCélula%3E%3C%2FmxGraphModeCRU&lt;/font&gt;&lt;/font&gt;&lt;/font&gt;&lt;/font&gt;&lt;/font&gt;&lt;/font&gt;&lt;/font&gt;&lt;/font&gt;&lt;/font&gt;&lt;/font&gt;&lt;/span&gt;&lt;/font&gt;&lt;/font&gt;&lt;/div&gt;" style="text;html=1;strokeColor=none;fillColor=none;align=left;verticalAlign=top;spacingLeft=4;spacingRight=4;whiteSpace=wrap;overflow=hidden;rotatable=0;points=[[0,0.5],[1,0.5]];portConstraint=eastwest;" vertex="1" parent="78961159f06e98e8-17">
          <mxGeometry y="350" width="260" height="26" as="geometry" />
        </mxCell>
        <mxCell id="RVDY1MvP-D8Hmczx_MQF-10" value="&lt;font style=&quot;vertical-align: inherit;&quot;&gt;&lt;font style=&quot;vertical-align: inherit;&quot;&gt;&lt;font style=&quot;vertical-align: inherit;&quot;&gt;&lt;font style=&quot;vertical-align: inherit;&quot;&gt;&lt;font style=&quot;vertical-align: inherit;&quot;&gt;&lt;font style=&quot;vertical-align: inherit;&quot;&gt;&lt;font style=&quot;vertical-align: inherit;&quot;&gt;&lt;font style=&quot;vertical-align: inherit;&quot;&gt;&lt;font style=&quot;vertical-align: inherit;&quot;&gt;&lt;font style=&quot;vertical-align: inherit;&quot;&gt;&lt;font style=&quot;vertical-align: inherit;&quot;&gt;&lt;font style=&quot;vertical-align: inherit;&quot;&gt;&lt;font style=&quot;vertical-align: inherit;&quot;&gt;&lt;font style=&quot;vertical-align: inherit;&quot;&gt;+ Eliminar Usuario&lt;/font&gt;&lt;/font&gt;&lt;/font&gt;&lt;/font&gt;&lt;/font&gt;&lt;/font&gt;&lt;/font&gt;&lt;/font&gt;&lt;/font&gt;&lt;/font&gt;&lt;/font&gt;&lt;/font&gt;&lt;/font&gt;&lt;/font&gt;&lt;span style=&quot;color: rgba(0, 0, 0, 0); font-family: monospace; font-size: 0px; text-wrap-mode: nowrap;&quot;&gt;&lt;font style=&quot;vertical-align: inherit;&quot;&gt;&lt;font style=&quot;vertical-align: inherit;&quot;&gt;&lt;font style=&quot;vertical-align: inherit;&quot;&gt;&lt;font style=&quot;vertical-align: inherit;&quot;&gt;%3CmxGraphModel%3E%3Croot%3E%3CmxCell%20id%3D%22%22%22%22%22%20value%3D%22%22%26lt%3Cfont%20style%3Bvertical-align%3B%26ct%3B%26ct%3B%26ct%3B%26cot%3B%26cot%3B%26cot%3B%26cot%3B%26cot%3B%26cot%3B%26cot%3B3D%26cot%3Bvertical-align%3B3B%26cot%3B3B%26cot%3Bvertical-align%3Bfont%26cot%3Bvertical-align%3Bfont%26cot%3Bvertical-align%33B%26cot%3B%26cot%3B%26ct%3B%26ct%3B%26ct%3B%26ct%3B%26ct%3B%26ct%3B%26ct%3B%26ct%3B%26ct%3B%26ct%3B%26ct%3B%26ct%3B%26ct%3B%26ct%3B%26ct%3B%26ct%3B%26ct%3B%26ct%3B%26ct%3B%26ct%3B%26ct%3B%26ct%3B%26ct%3B%26ct%3B%26ct%3B%26ct%3B%26ct%3B%26ct%3B%26ct%3B26ct%20descripcion%26lt%3B%26font%26gt%3B%26font%26gt%3B%26lt%3B%26lt%3B%26lt%3B%26lt%3B%26lt%3B%26lt%3B%26lt%3B%26gt%26lt%3B%26gt%26lt%3B%26gt%26lt%3B%26lt%26lt%3B%26lt%26lt%26lt%3B%26lt%26lt%26lt%3B%26lt%26l%3B%26lt%26l%3B%26lt%26l%3B%26lt%26l%3B%26lt%26l%3B%26l%26l%3B%6lt%26lt%3B%26lt%3B%26lt%3Bb%26gt%3Bb%26gt%3Bb%26gt%3Bb%26gt%3B%26gt%3B%26cót%3B%26cót%3B%26cót%3B%26cót%3B%26cót%3B%26cót%3B%26cót%3B%26cót%3B%26cót%3B%26cót%3B%26cót%3B%26cót%3B%26cót%3B%26inherit%3B%26ct%3B%26ct%3B%26ct%3B%26ct%3B%26ct%3B%26ct%3B%26ct%3B%23B%26ct%3B%26ct%3B%26ct%3B%26c%3Bcolor%3A%26c%3B%26c%200%2C%200%2C%200%2C%200%2C%200%2C%200px%3A%200px%3B%200px%3B%26quot%3B%26gt%3B%26cot%3B%26ct%3B%26gt%3B%26gt%3B%26gt%3B%26gt%3B%26gt%3B%26gt%3B%26gt%3B%26gt%3B%26gt%3B%26gt%3B%26gt%3B%26gt%3B%26ct%3Bvertical-align%326cuot%3B%26quot%3B%26quot%3B%26gt%3B%26gt%3B%26gt%3B%26gt%3B%26gt%3B%26gt%3B%26gt%3B%26gt%3B%26gt%3B%26gt%3B%26gt%3B%26gt%3B%26lt%3Bfont%20style%3B%26quot%3B%26bt%3B%26bt%3B%26bt%3B%26bt%3B%26bt%3B%26bt%3B%26inherit%3B%26bt%3B%26bt%3B%26bt%3B%26bt%3B%26bt%3B%26bt%3B%26btt%3B%26gt%3B%26gt%3B%26bvertical-align%3B%26bvertical-align%3B%26bvertical-align%3B%26bvertical%3B%26bvertical-align%3B%26cot%3B%26cot%3B%26cot%3B%26cot%3B%26cot%3B%26cot%3B%26cot%3B%26cot%3B%26cot%3B%26cot%3B%26cot%3B%26cot%3B%26cot%3B%26cot%3B%26cot%3B%253D%2522%2520valor%253B%2526t%253B%2526t%253B%2526t%253253B%2526t%253B%2526t%253B%2526t%253B%2526t%253B%2526t%253B%2526t%253B%2526t%253B%2526t%253B%2526t%253B%252C0%253B1%252C0%255D%252C%253B1%252C05B1%252C0%255D%252C%252C05B1%252C%252C05B1%252C%252C05Geometr%C3%2522%2520as3D%2522%2520as3D%2522%2520as3D%2522%2520as326lt%3B%26lt%3B%26gt%3B%26lt%3B%26gt%3B%26lt%3B%26lt%32Fspan%26gt%3B%26lt%3B%26lt%3B%26lt%3B%26lt%3B%26lt%3B%26lt%26lt%3B%26lt%26lt%26lt%26lt%26lt%26lt%26lt%26lt%26lt%26lt%26lt%26lt%26lt%26l%3B%26lt%26lt%3B%26lt%3B%26lt%3B%26lt%3B%22%20style%3D3BstrokeColor%3B%22%20style%3Dnone%3Balign%3BverticalAlign%3BspacingLight%3D4%3BwhiteSpace%3Dwrap%3Brotable%3D0%3Bpoints%5B0%2C0.5B1%2C0.5B1%2C0.5B1%2C0.5B1%2C0.5B1%2C0.5B1%2C0.5B1%2C0.5D%5D%5D%3BportConstraint%3B%22%20vertex%3D%221%22%3E%3CmxGeometría%20x%3D%2220%22%20as%3D%22geometría%22%2F%3E%3C%2FmxCell%3E%3C%2Froot%3E%3C%2FmxGraphModelo%3E5%5D%5D%3BportConstraint%3B%22%20vertex%3D%221%22%20parent%3D%221%22%3CmxGeometría%20x%3D%2220%22%20y%3D%2220%22%20width%3D%22160%22%20height%3D%2226%22%20as%3D%222geometría%22%2F%3E%3C%2FmxCell%3E%3C%2Froot%3E%3C%2FmxGraphModel%3E5%5D%5D%3BportConstraint%3B%22%20vertex%3D%221%22%20parent%3D%221%22%3CmxGeometría%20x%3D%2220%22%20y%3D%2220%22%20width%3D%22160%22%20height%3D%2226%22%20as%3D%222geometría%22%2F%3E%3C%2FmxCell%3E%3C%2Froot%3E%3C%2FmxGraphModel%3E&lt;/font&gt;&lt;/font&gt;&lt;/font&gt;&lt;/font&gt;&lt;/span&gt;&lt;div&gt;&lt;font style=&quot;vertical-align: inherit;&quot;&gt;&lt;font style=&quot;vertical-align: inherit;&quot;&gt;&lt;span style=&quot;color: rgba(0, 0, 0, 0); font-family: monospace; font-size: 0px; text-wrap-mode: nowrap;&quot;&gt;&lt;font style=&quot;vertical-align: inherit;&quot;&gt;&lt;font style=&quot;vertical-align: inherit;&quot;&gt;&lt;font style=&quot;vertical-align: inherit;&quot;&gt;&lt;font style=&quot;vertical-align: inherit;&quot;&gt;&lt;font style=&quot;vertical-align: inherit;&quot;&gt;&lt;font style=&quot;vertical-align: inherit;&quot;&gt;&lt;font style=&quot;vertical-align: inherit;&quot;&gt;&lt;font style=&quot;vertical-align: inherit;&quot;&gt;&lt;font style=&quot;vertical-align: inherit;&quot;&gt;&lt;font style=&quot;vertical-align: inherit;&quot;&gt;&lt;font style=&quot;vertical-align: inherit;&quot;&gt;&lt;font style=&quot;vertical-align: inherit;&quot;&gt;U%3CmxGraphModel%3E%3Croot%3E%3CmxCell%20id%3D%22%22%20value%3D%22%22%26t%3B%26ct%3B%26ct%3B3B%26ct%3B3B%26cot%3B3B%26cot%3B3B%26cot%3B3B%26cot%3B3B%26cot%3B3B%26cot%3B3B%26cot%3B3B%26cot%3B3B%26cot%3B3B%26cot%3B3B%26cot%3B3B%26cot%3B3B%26cot%3B3B%26cot%3B3B%26cot%3B3B%26cot%3B3B%26cot%3B%26ct%3B%26ct%3B%26ct%3B%26ct%3B%26ct%3B%26ct%3B%26ct%3B%26ct%3B%26ct%3B%26ct%3B%26ct%3B%26ct%3B%26ct%3B%26ct%3B%26ct%3B%26ct%3B%26ct%3B%26ct%3B%26ct%3B%26ct%3B%26ct%3B%26ct%26ct%3B%26ct%26l%26l%26l%26l%26l%26l%26l%26l%26l%26l%26l%26l%26l%26l%26l%26l%2626l%26l%26l%26l%26l%26l%26l%26l%26l%26l%26l%26l%26l%26l%26l%26l%26l%26l%26l%26l%26l%26l%26l%26l%26l%26l%26l%26l%26l%26l%26l%26l%26l%26l%26l%26l%26l%26l%26l%26l%26l%26l%26l%26l%26l%26l%26l%26l%26l%26l%26l%26l%26l%26l%26l%26l%26l%26l%26l%26l%26l%26l%26l%26l%26ct%3B%26ct%3B%26ct%3B%26ct%3B%26ct%3B%26ct%3B%26ct%3B%26ct%3B%26ct%3B%26ct%3B%26ct%3B%26ct%3B%26ct%3B%26ct%3B%26ct%3B%26ct%3B%26ct%3B%26ct%3B%26ct%3B%26ct%3B%26ct%3B%26gt%3B%26gt%3B%26gt%3B%26gt%3B%26gt%3B%26gt%3B%26gt%3B%26gt%3B%26gt%3B%26gt%3B%26gt%326ct%3B%26gt%3B%26gt%3B%26gt%3B%26gt%3B%26gt%3B%26bt%3B%26bt%3B%26bt%3B%26bt%3B%26bt%3B%26bt%3B%26bt%3B%26bt%3B%26bt%3B%26bt%3B%26bt%3B%26bt%3B%26bt%3B%26bt%3B%26btvertical%3B%26btvertical%3B%26btvertical%3B%26btvertical%3B%26btvertical%3B%26bt%3B%26bt%3B%26bt%3B%26bt%3B%26bt%3B%26cot%3B%26cot%3B%26cot%3B%26cot%3B%26cot%3B%26cot%3B%26cot%3B%26cot%3B%26cot%3B%26cot%3B%2522%2526t%253B%2526t%253B%2526t%253B%2526t%253B%2526t%253B%2526t%253B%252C05B1%252C05B1%252C%252C05B1%252C%252C05B1%252C%252C05B1%252C%2520as3D%2522%2520as3D%2522%2520as3D%2522%2%2520as3D%26lt%26lt%26lt%26lt%26lt%26lt%26lt%26lt%26lt%26lt%26lt%26lt%26lt%26lt%26lt%26lt%26lt%26lt%26lt%26lt%26lt%26lt%26lt%26lt%26lt%26lt%26lt%26lt%26lt%26lt%26lt%26lt%26lt%26lt%26lt%26lt%26lt%26lt%26lt%26lt%26lt%26lt%26lt%22%3CmxGeometría%22%22geometría%22%2Fmx3E%3C%2FmxGraphMode5%5D%5D%22%20xGe22%3B%22%20xGe22%3B%22%20xGe22%3B%22%220%3D%222%20as%3D%22%222geometría%22%2FmxGraphModeCREAT5D%5D%5D%22%20vertex%3D%22%20vertex%3D%22%20vertex%3D%22%20vertex%3D%22%20as%3D%22%20as%3D%22%22geometría%22%2FmxCell%3E%3C%22geometría%22%2FmxGraphMode5%5D%5D%3B%22%20vertex%3B%22%203CmxGe3D%2220%200%2220%3D%2220%3D%2220%3D%2220%3D%2220%3D%2220%3D%2220%3D%2220%3D%22203C%22203C%22203C%22203C%2FmxGraphMode5%5D%5D%3BportConstraint%3B%22%20vertex%3D%22%20parent%3D%22%3CmxGeometría%20x%3D%2220%22%220%22%220%3D%22222geometría%22%2FmxCell%3E%3C%22%20vertex%3B%3B%22%20vertex%3D%22%20vertex%3D%22%20vertex%3D%22%20vertex%3D%22%204%3D%222%20as%3E%3C%22geometría%22%2FmxCell%3E%3C%22geometría%22%2FmxGraphMode5%5D%221%22%3C%220y%3D%2220%220%220%3D%2220%3D%2220%3D%2220%3D%2220%3D%222220%3D%2220%3D%2220%3D%2222%20vertex%3B%22%220%220%220%220%220%220%220%220%220%220%220%220%220%220%220%220%220%220%220%220%220%220%220%220%220%220%220%220%203E%3C%2FmxGraphModeCREAT%3C%3C%22%2FmxGraphMode5%5D%5D%3B%22%20vertex%3D%22%20parent%3D%22%221%22%3CmxGeometría%20x%3D%2220%222%20as%3D%222geometría%22%2FmxCell%3E%3C%2FmxGraphModeCREAT%3C%3C%2FmxCell%3E%3C%2FmxGraphMode5%5D%5D%3B%22%20vertex%3D%22%221%22%20parent%3D%221%22%3CmxGeometría%20x%3D%2220%22%20y%3D%2220%22%20width%3D%22260%22%20%3D%23C%2FmxCélula%3E%3C%2FmxGraphModeCRU&lt;/font&gt;&lt;/font&gt;&lt;/font&gt;&lt;/font&gt;&lt;/font&gt;&lt;/font&gt;&lt;/font&gt;&lt;/font&gt;&lt;/font&gt;&lt;/font&gt;&lt;/font&gt;&lt;/font&gt;&lt;/span&gt;&lt;/font&gt;&lt;/font&gt;&lt;/div&gt;" style="text;html=1;strokeColor=none;fillColor=none;align=left;verticalAlign=top;spacingLeft=4;spacingRight=4;whiteSpace=wrap;overflow=hidden;rotatable=0;points=[[0,0.5],[1,0.5]];portConstraint=eastwest;" vertex="1" parent="78961159f06e98e8-17">
          <mxGeometry y="376" width="260" height="26" as="geometry" />
        </mxCell>
        <mxCell id="78961159f06e98e8-27" value="&lt;font style=&quot;vertical-align: inherit;&quot;&gt;&lt;font style=&quot;vertical-align: inherit;&quot;&gt;&lt;font style=&quot;vertical-align: inherit;&quot;&gt;&lt;font style=&quot;vertical-align: inherit;&quot;&gt;&lt;font style=&quot;vertical-align: inherit;&quot;&gt;&lt;font style=&quot;vertical-align: inherit;&quot;&gt;&lt;font style=&quot;vertical-align: inherit;&quot;&gt;&lt;font style=&quot;vertical-align: inherit;&quot;&gt;&lt;font style=&quot;vertical-align: inherit;&quot;&gt;&lt;font style=&quot;vertical-align: inherit;&quot;&gt;&lt;font style=&quot;vertical-align: inherit;&quot;&gt;&lt;font style=&quot;vertical-align: inherit;&quot;&gt;&lt;font style=&quot;vertical-align: inherit;&quot;&gt;&lt;font style=&quot;vertical-align: inherit;&quot;&gt;+ Actualizar Usuario&lt;/font&gt;&lt;/font&gt;&lt;/font&gt;&lt;/font&gt;&lt;/font&gt;&lt;/font&gt;&lt;/font&gt;&lt;/font&gt;&lt;/font&gt;&lt;/font&gt;&lt;/font&gt;&lt;/font&gt;&lt;/font&gt;&lt;/font&gt;&lt;span style=&quot;color: rgba(0, 0, 0, 0); font-family: monospace; font-size: 0px; text-wrap-mode: nowrap;&quot;&gt;&lt;font style=&quot;vertical-align: inherit;&quot;&gt;&lt;font style=&quot;vertical-align: inherit;&quot;&gt;&lt;font style=&quot;vertical-align: inherit;&quot;&gt;&lt;font style=&quot;vertical-align: inherit;&quot;&gt;%3CmxGraphModel%3E%3Croot%3E%3CmxCell%20id%3D%22%22%22%22%22%20value%3D%22%22%26lt%3Cfont%20style%3Bvertical-align%3B%26ct%3B%26ct%3B%26ct%3B%26cot%3B%26cot%3B%26cot%3B%26cot%3B%26cot%3B%26cot%3B%26cot%3B3D%26cot%3Bvertical-align%3B3B%26cot%3B3B%26cot%3Bvertical-align%3Bfont%26cot%3Bvertical-align%3Bfont%26cot%3Bvertical-align%33B%26cot%3B%26cot%3B%26ct%3B%26ct%3B%26ct%3B%26ct%3B%26ct%3B%26ct%3B%26ct%3B%26ct%3B%26ct%3B%26ct%3B%26ct%3B%26ct%3B%26ct%3B%26ct%3B%26ct%3B%26ct%3B%26ct%3B%26ct%3B%26ct%3B%26ct%3B%26ct%3B%26ct%3B%26ct%3B%26ct%3B%26ct%3B%26ct%3B%26ct%3B%26ct%3B%26ct%3B26ct%20descripcion%26lt%3B%26font%26gt%3B%26font%26gt%3B%26lt%3B%26lt%3B%26lt%3B%26lt%3B%26lt%3B%26lt%3B%26lt%3B%26gt%26lt%3B%26gt%26lt%3B%26gt%26lt%3B%26lt%26lt%3B%26lt%26lt%26lt%3B%26lt%26lt%26lt%3B%26lt%26l%3B%26lt%26l%3B%26lt%26l%3B%26lt%26l%3B%26lt%26l%3B%26l%26l%3B%6lt%26lt%3B%26lt%3B%26lt%3Bb%26gt%3Bb%26gt%3Bb%26gt%3Bb%26gt%3B%26gt%3B%26cót%3B%26cót%3B%26cót%3B%26cót%3B%26cót%3B%26cót%3B%26cót%3B%26cót%3B%26cót%3B%26cót%3B%26cót%3B%26cót%3B%26cót%3B%26inherit%3B%26ct%3B%26ct%3B%26ct%3B%26ct%3B%26ct%3B%26ct%3B%26ct%3B%23B%26ct%3B%26ct%3B%26ct%3B%26c%3Bcolor%3A%26c%3B%26c%200%2C%200%2C%200%2C%200%2C%200%2C%200px%3A%200px%3B%200px%3B%26quot%3B%26gt%3B%26cot%3B%26ct%3B%26gt%3B%26gt%3B%26gt%3B%26gt%3B%26gt%3B%26gt%3B%26gt%3B%26gt%3B%26gt%3B%26gt%3B%26gt%3B%26gt%3B%26ct%3Bvertical-align%326cuot%3B%26quot%3B%26quot%3B%26gt%3B%26gt%3B%26gt%3B%26gt%3B%26gt%3B%26gt%3B%26gt%3B%26gt%3B%26gt%3B%26gt%3B%26gt%3B%26gt%3B%26lt%3Bfont%20style%3B%26quot%3B%26bt%3B%26bt%3B%26bt%3B%26bt%3B%26bt%3B%26bt%3B%26inherit%3B%26bt%3B%26bt%3B%26bt%3B%26bt%3B%26bt%3B%26bt%3B%26btt%3B%26gt%3B%26gt%3B%26bvertical-align%3B%26bvertical-align%3B%26bvertical-align%3B%26bvertical%3B%26bvertical-align%3B%26cot%3B%26cot%3B%26cot%3B%26cot%3B%26cot%3B%26cot%3B%26cot%3B%26cot%3B%26cot%3B%26cot%3B%26cot%3B%26cot%3B%26cot%3B%26cot%3B%26cot%3B%253D%2522%2520valor%253B%2526t%253B%2526t%253B%2526t%253253B%2526t%253B%2526t%253B%2526t%253B%2526t%253B%2526t%253B%2526t%253B%2526t%253B%2526t%253B%2526t%253B%252C0%253B1%252C0%255D%252C%253B1%252C05B1%252C0%255D%252C%252C05B1%252C%252C05B1%252C%252C05Geometr%C3%2522%2520as3D%2522%2520as3D%2522%2520as3D%2522%2520as326lt%3B%26lt%3B%26gt%3B%26lt%3B%26gt%3B%26lt%3B%26lt%32Fspan%26gt%3B%26lt%3B%26lt%3B%26lt%3B%26lt%3B%26lt%3B%26lt%26lt%3B%26lt%26lt%26lt%26lt%26lt%26lt%26lt%26lt%26lt%26lt%26lt%26lt%26lt%26l%3B%26lt%26lt%3B%26lt%3B%26lt%3B%26lt%3B%22%20style%3D3BstrokeColor%3B%22%20style%3Dnone%3Balign%3BverticalAlign%3BspacingLight%3D4%3BwhiteSpace%3Dwrap%3Brotable%3D0%3Bpoints%5B0%2C0.5B1%2C0.5B1%2C0.5B1%2C0.5B1%2C0.5B1%2C0.5B1%2C0.5B1%2C0.5D%5D%5D%3BportConstraint%3B%22%20vertex%3D%221%22%3E%3CmxGeometría%20x%3D%2220%22%20as%3D%22geometría%22%2F%3E%3C%2FmxCell%3E%3C%2Froot%3E%3C%2FmxGraphModelo%3E5%5D%5D%3BportConstraint%3B%22%20vertex%3D%221%22%20parent%3D%221%22%3CmxGeometría%20x%3D%2220%22%20y%3D%2220%22%20width%3D%22160%22%20height%3D%2226%22%20as%3D%222geometría%22%2F%3E%3C%2FmxCell%3E%3C%2Froot%3E%3C%2FmxGraphModel%3E5%5D%5D%3BportConstraint%3B%22%20vertex%3D%221%22%20parent%3D%221%22%3CmxGeometría%20x%3D%2220%22%20y%3D%2220%22%20width%3D%22160%22%20height%3D%2226%22%20as%3D%222geometría%22%2F%3E%3C%2FmxCell%3E%3C%2Froot%3E%3C%2FmxGraphModel%3E&lt;/font&gt;&lt;/font&gt;&lt;/font&gt;&lt;/font&gt;&lt;/span&gt;&lt;div&gt;&lt;font style=&quot;vertical-align: inherit;&quot;&gt;&lt;font style=&quot;vertical-align: inherit;&quot;&gt;&lt;span style=&quot;color: rgba(0, 0, 0, 0); font-family: monospace; font-size: 0px; text-wrap-mode: nowrap;&quot;&gt;&lt;font style=&quot;vertical-align: inherit;&quot;&gt;&lt;font style=&quot;vertical-align: inherit;&quot;&gt;&lt;font style=&quot;vertical-align: inherit;&quot;&gt;&lt;font style=&quot;vertical-align: inherit;&quot;&gt;&lt;font style=&quot;vertical-align: inherit;&quot;&gt;&lt;font style=&quot;vertical-align: inherit;&quot;&gt;&lt;font style=&quot;vertical-align: inherit;&quot;&gt;&lt;font style=&quot;vertical-align: inherit;&quot;&gt;&lt;font style=&quot;vertical-align: inherit;&quot;&gt;&lt;font style=&quot;vertical-align: inherit;&quot;&gt;&lt;font style=&quot;vertical-align: inherit;&quot;&gt;&lt;font style=&quot;vertical-align: inherit;&quot;&gt;U%3CmxGraphModel%3E%3Croot%3E%3CmxCell%20id%3D%22%22%20value%3D%22%22%26t%3B%26ct%3B%26ct%3B3B%26ct%3B3B%26cot%3B3B%26cot%3B3B%26cot%3B3B%26cot%3B3B%26cot%3B3B%26cot%3B3B%26cot%3B3B%26cot%3B3B%26cot%3B3B%26cot%3B3B%26cot%3B3B%26cot%3B3B%26cot%3B3B%26cot%3B3B%26cot%3B3B%26cot%3B3B%26cot%3B%26ct%3B%26ct%3B%26ct%3B%26ct%3B%26ct%3B%26ct%3B%26ct%3B%26ct%3B%26ct%3B%26ct%3B%26ct%3B%26ct%3B%26ct%3B%26ct%3B%26ct%3B%26ct%3B%26ct%3B%26ct%3B%26ct%3B%26ct%3B%26ct%3B%26ct%26ct%3B%26ct%26l%26l%26l%26l%26l%26l%26l%26l%26l%26l%26l%26l%26l%26l%26l%26l%2626l%26l%26l%26l%26l%26l%26l%26l%26l%26l%26l%26l%26l%26l%26l%26l%26l%26l%26l%26l%26l%26l%26l%26l%26l%26l%26l%26l%26l%26l%26l%26l%26l%26l%26l%26l%26l%26l%26l%26l%26l%26l%26l%26l%26l%26l%26l%26l%26l%26l%26l%26l%26l%26l%26l%26l%26l%26l%26l%26l%26l%26l%26l%26l%26ct%3B%26ct%3B%26ct%3B%26ct%3B%26ct%3B%26ct%3B%26ct%3B%26ct%3B%26ct%3B%26ct%3B%26ct%3B%26ct%3B%26ct%3B%26ct%3B%26ct%3B%26ct%3B%26ct%3B%26ct%3B%26ct%3B%26ct%3B%26ct%3B%26gt%3B%26gt%3B%26gt%3B%26gt%3B%26gt%3B%26gt%3B%26gt%3B%26gt%3B%26gt%3B%26gt%3B%26gt%326ct%3B%26gt%3B%26gt%3B%26gt%3B%26gt%3B%26gt%3B%26bt%3B%26bt%3B%26bt%3B%26bt%3B%26bt%3B%26bt%3B%26bt%3B%26bt%3B%26bt%3B%26bt%3B%26bt%3B%26bt%3B%26bt%3B%26bt%3B%26btvertical%3B%26btvertical%3B%26btvertical%3B%26btvertical%3B%26btvertical%3B%26bt%3B%26bt%3B%26bt%3B%26bt%3B%26bt%3B%26cot%3B%26cot%3B%26cot%3B%26cot%3B%26cot%3B%26cot%3B%26cot%3B%26cot%3B%26cot%3B%26cot%3B%2522%2526t%253B%2526t%253B%2526t%253B%2526t%253B%2526t%253B%2526t%253B%252C05B1%252C05B1%252C%252C05B1%252C%252C05B1%252C%252C05B1%252C%2520as3D%2522%2520as3D%2522%2520as3D%2522%2%2520as3D%26lt%26lt%26lt%26lt%26lt%26lt%26lt%26lt%26lt%26lt%26lt%26lt%26lt%26lt%26lt%26lt%26lt%26lt%26lt%26lt%26lt%26lt%26lt%26lt%26lt%26lt%26lt%26lt%26lt%26lt%26lt%26lt%26lt%26lt%26lt%26lt%26lt%26lt%26lt%26lt%26lt%26lt%26lt%22%3CmxGeometría%22%22geometría%22%2Fmx3E%3C%2FmxGraphMode5%5D%5D%22%20xGe22%3B%22%20xGe22%3B%22%20xGe22%3B%22%220%3D%222%20as%3D%22%222geometría%22%2FmxGraphModeCREAT5D%5D%5D%22%20vertex%3D%22%20vertex%3D%22%20vertex%3D%22%20vertex%3D%22%20as%3D%22%20as%3D%22%22geometría%22%2FmxCell%3E%3C%22geometría%22%2FmxGraphMode5%5D%5D%3B%22%20vertex%3B%22%203CmxGe3D%2220%200%2220%3D%2220%3D%2220%3D%2220%3D%2220%3D%2220%3D%2220%3D%2220%3D%22203C%22203C%22203C%22203C%2FmxGraphMode5%5D%5D%3BportConstraint%3B%22%20vertex%3D%22%20parent%3D%22%3CmxGeometría%20x%3D%2220%22%220%22%220%3D%22222geometría%22%2FmxCell%3E%3C%22%20vertex%3B%3B%22%20vertex%3D%22%20vertex%3D%22%20vertex%3D%22%20vertex%3D%22%204%3D%222%20as%3E%3C%22geometría%22%2FmxCell%3E%3C%22geometría%22%2FmxGraphMode5%5D%221%22%3C%220y%3D%2220%220%220%3D%2220%3D%2220%3D%2220%3D%2220%3D%222220%3D%2220%3D%2220%3D%2222%20vertex%3B%22%220%220%220%220%220%220%220%220%220%220%220%220%220%220%220%220%220%220%220%220%220%220%220%220%220%220%220%220%203E%3C%2FmxGraphModeCREAT%3C%3C%22%2FmxGraphMode5%5D%5D%3B%22%20vertex%3D%22%20parent%3D%22%221%22%3CmxGeometría%20x%3D%2220%222%20as%3D%222geometría%22%2FmxCell%3E%3C%2FmxGraphModeCREAT%3C%3C%2FmxCell%3E%3C%2FmxGraphMode5%5D%5D%3B%22%20vertex%3D%22%221%22%20parent%3D%221%22%3CmxGeometría%20x%3D%2220%22%20y%3D%2220%22%20width%3D%22260%22%20%3D%23C%2FmxCélula%3E%3C%2FmxGraphModeCRU&lt;/font&gt;&lt;/font&gt;&lt;/font&gt;&lt;/font&gt;&lt;/font&gt;&lt;/font&gt;&lt;/font&gt;&lt;/font&gt;&lt;/font&gt;&lt;/font&gt;&lt;/font&gt;&lt;/font&gt;&lt;/span&gt;&lt;/font&gt;&lt;/font&gt;&lt;/div&gt;" style="text;html=1;strokeColor=none;fillColor=none;align=left;verticalAlign=top;spacingLeft=4;spacingRight=4;whiteSpace=wrap;overflow=hidden;rotatable=0;points=[[0,0.5],[1,0.5]];portConstraint=eastwest;" parent="78961159f06e98e8-17" vertex="1">
          <mxGeometry y="402" width="260" height="24" as="geometry" />
        </mxCell>
        <mxCell id="78961159f06e98e8-30" value="&lt;font style=&quot;vertical-align: inherit;&quot;&gt;&lt;font style=&quot;vertical-align: inherit;&quot;&gt;Clientes&lt;/font&gt;&lt;/font&gt;&lt;div&gt;&lt;font style=&quot;vertical-align: inherit;&quot;&gt;&lt;font style=&quot;vertical-align: inherit;&quot;&gt;&lt;br&gt;&lt;/font&gt;&lt;/font&gt;&lt;/div&gt;" style="swimlane;html=1;fontStyle=1;align=center;verticalAlign=top;childLayout=stackLayout;horizontal=1;startSize=26;horizontalStack=0;resizeParent=1;resizeLast=0;collapsible=1;marginBottom=0;swimlaneFillColor=#ffffff;rounded=0;shadow=0;comic=0;labelBackgroundColor=none;strokeWidth=1;fillColor=none;fontFamily=Verdana;fontSize=12" parent="1" vertex="1">
          <mxGeometry x="560" y="220" width="160" height="277" as="geometry" />
        </mxCell>
        <mxCell id="78961159f06e98e8-31" value="+ field: type" style="text;html=1;strokeColor=none;fillColor=none;align=left;verticalAlign=top;spacingLeft=4;spacingRight=4;whiteSpace=wrap;overflow=hidden;rotatable=0;points=[[0,0.5],[1,0.5]];portConstraint=eastwest;" parent="78961159f06e98e8-30" vertex="1">
          <mxGeometry y="26" width="160" height="26" as="geometry" />
        </mxCell>
        <mxCell id="78961159f06e98e8-32" value="+ field: type" style="text;html=1;strokeColor=none;fillColor=none;align=left;verticalAlign=top;spacingLeft=4;spacingRight=4;whiteSpace=wrap;overflow=hidden;rotatable=0;points=[[0,0.5],[1,0.5]];portConstraint=eastwest;" parent="78961159f06e98e8-30" vertex="1">
          <mxGeometry y="52" width="160" height="26" as="geometry" />
        </mxCell>
        <mxCell id="78961159f06e98e8-33" value="+ field: type" style="text;html=1;strokeColor=none;fillColor=none;align=left;verticalAlign=top;spacingLeft=4;spacingRight=4;whiteSpace=wrap;overflow=hidden;rotatable=0;points=[[0,0.5],[1,0.5]];portConstraint=eastwest;" parent="78961159f06e98e8-30" vertex="1">
          <mxGeometry y="78" width="160" height="26" as="geometry" />
        </mxCell>
        <mxCell id="78961159f06e98e8-34" value="+ field: type" style="text;html=1;strokeColor=none;fillColor=none;align=left;verticalAlign=top;spacingLeft=4;spacingRight=4;whiteSpace=wrap;overflow=hidden;rotatable=0;points=[[0,0.5],[1,0.5]];portConstraint=eastwest;" parent="78961159f06e98e8-30" vertex="1">
          <mxGeometry y="104" width="160" height="26" as="geometry" />
        </mxCell>
        <mxCell id="78961159f06e98e8-36" value="+ field: type" style="text;html=1;strokeColor=none;fillColor=none;align=left;verticalAlign=top;spacingLeft=4;spacingRight=4;whiteSpace=wrap;overflow=hidden;rotatable=0;points=[[0,0.5],[1,0.5]];portConstraint=eastwest;" parent="78961159f06e98e8-30" vertex="1">
          <mxGeometry y="130" width="160" height="26" as="geometry" />
        </mxCell>
        <mxCell id="78961159f06e98e8-37" value="+ field: type" style="text;html=1;strokeColor=none;fillColor=none;align=left;verticalAlign=top;spacingLeft=4;spacingRight=4;whiteSpace=wrap;overflow=hidden;rotatable=0;points=[[0,0.5],[1,0.5]];portConstraint=eastwest;" parent="78961159f06e98e8-30" vertex="1">
          <mxGeometry y="156" width="160" height="26" as="geometry" />
        </mxCell>
        <mxCell id="78961159f06e98e8-38" value="" style="line;html=1;strokeWidth=1;fillColor=none;align=left;verticalAlign=middle;spacingTop=-1;spacingLeft=3;spacingRight=3;rotatable=0;labelPosition=right;points=[];portConstraint=eastwest;" parent="78961159f06e98e8-30" vertex="1">
          <mxGeometry y="182" width="160" height="8" as="geometry" />
        </mxCell>
        <mxCell id="78961159f06e98e8-39" value="+ method(type): type" style="text;html=1;strokeColor=none;fillColor=none;align=left;verticalAlign=top;spacingLeft=4;spacingRight=4;whiteSpace=wrap;overflow=hidden;rotatable=0;points=[[0,0.5],[1,0.5]];portConstraint=eastwest;" parent="78961159f06e98e8-30" vertex="1">
          <mxGeometry y="190" width="160" height="26" as="geometry" />
        </mxCell>
        <mxCell id="78961159f06e98e8-40" value="+ method(type): type" style="text;html=1;strokeColor=none;fillColor=none;align=left;verticalAlign=top;spacingLeft=4;spacingRight=4;whiteSpace=wrap;overflow=hidden;rotatable=0;points=[[0,0.5],[1,0.5]];portConstraint=eastwest;" parent="78961159f06e98e8-30" vertex="1">
          <mxGeometry y="216" width="160" height="26" as="geometry" />
        </mxCell>
        <mxCell id="78961159f06e98e8-42" value="+ method(type): type" style="text;html=1;strokeColor=none;fillColor=none;align=left;verticalAlign=top;spacingLeft=4;spacingRight=4;whiteSpace=wrap;overflow=hidden;rotatable=0;points=[[0,0.5],[1,0.5]];portConstraint=eastwest;" parent="78961159f06e98e8-30" vertex="1">
          <mxGeometry y="242" width="160" height="26" as="geometry" />
        </mxCell>
        <mxCell id="78961159f06e98e8-43" value="&lt;font style=&quot;vertical-align: inherit;&quot;&gt;&lt;font style=&quot;vertical-align: inherit;&quot;&gt;Productos&lt;/font&gt;&lt;/font&gt;&lt;div&gt;&lt;font style=&quot;vertical-align: inherit;&quot;&gt;&lt;font style=&quot;vertical-align: inherit;&quot;&gt;&lt;br&gt;&lt;/font&gt;&lt;/font&gt;&lt;/div&gt;" style="swimlane;html=1;fontStyle=1;align=center;verticalAlign=top;childLayout=stackLayout;horizontal=1;startSize=26;horizontalStack=0;resizeParent=1;resizeLast=0;collapsible=1;marginBottom=0;swimlaneFillColor=#ffffff;rounded=0;shadow=0;comic=0;labelBackgroundColor=none;strokeWidth=1;fillColor=none;fontFamily=Verdana;fontSize=12" parent="1" vertex="1">
          <mxGeometry x="320" y="-20" width="260" height="268" as="geometry" />
        </mxCell>
        <mxCell id="78961159f06e98e8-44" value="&lt;font style=&quot;vertical-align: inherit;&quot;&gt;&lt;font style=&quot;vertical-align: inherit;&quot;&gt;&lt;font style=&quot;vertical-align: inherit;&quot;&gt;&lt;font style=&quot;vertical-align: inherit;&quot;&gt;+ id int&lt;/font&gt;&lt;/font&gt;&lt;/font&gt;&lt;/font&gt;&lt;div&gt;&lt;font style=&quot;vertical-align: inherit;&quot;&gt;&lt;font style=&quot;vertical-align: inherit;&quot;&gt;&amp;nbsp;&lt;/font&gt;&lt;/font&gt;&lt;/div&gt;" style="text;html=1;strokeColor=none;fillColor=none;align=left;verticalAlign=top;spacingLeft=4;spacingRight=4;whiteSpace=wrap;overflow=hidden;rotatable=0;points=[[0,0.5],[1,0.5]];portConstraint=eastwest;" parent="78961159f06e98e8-43" vertex="1">
          <mxGeometry y="26" width="260" height="26" as="geometry" />
        </mxCell>
        <mxCell id="78961159f06e98e8-45" value="&lt;font style=&quot;vertical-align: inherit;&quot;&gt;&lt;font style=&quot;vertical-align: inherit;&quot;&gt;&lt;font style=&quot;vertical-align: inherit;&quot;&gt;&lt;font style=&quot;vertical-align: inherit;&quot;&gt;+ nombre varchar&lt;/font&gt;&lt;/font&gt;&lt;/font&gt;&lt;/font&gt;" style="text;html=1;strokeColor=none;fillColor=none;align=left;verticalAlign=top;spacingLeft=4;spacingRight=4;whiteSpace=wrap;overflow=hidden;rotatable=0;points=[[0,0.5],[1,0.5]];portConstraint=eastwest;" parent="78961159f06e98e8-43" vertex="1">
          <mxGeometry y="52" width="260" height="26" as="geometry" />
        </mxCell>
        <mxCell id="78961159f06e98e8-49" value="&lt;font style=&quot;vertical-align: inherit;&quot;&gt;&lt;font style=&quot;vertical-align: inherit;&quot;&gt;&lt;font style=&quot;vertical-align: inherit;&quot;&gt;&lt;font style=&quot;vertical-align: inherit;&quot;&gt;+ referencia: int&lt;/font&gt;&lt;/font&gt;&lt;/font&gt;&lt;/font&gt;" style="text;html=1;strokeColor=none;fillColor=none;align=left;verticalAlign=top;spacingLeft=4;spacingRight=4;whiteSpace=wrap;overflow=hidden;rotatable=0;points=[[0,0.5],[1,0.5]];portConstraint=eastwest;" parent="78961159f06e98e8-43" vertex="1">
          <mxGeometry y="78" width="260" height="26" as="geometry" />
        </mxCell>
        <mxCell id="RVDY1MvP-D8Hmczx_MQF-12" value="&lt;font style=&quot;vertical-align: inherit;&quot;&gt;&lt;font style=&quot;vertical-align: inherit;&quot;&gt;&lt;font style=&quot;vertical-align: inherit;&quot;&gt;&lt;font style=&quot;vertical-align: inherit;&quot;&gt;+ precio_por_mayor: varchar&lt;/font&gt;&lt;/font&gt;&lt;/font&gt;&lt;/font&gt;" style="text;html=1;strokeColor=none;fillColor=none;align=left;verticalAlign=top;spacingLeft=4;spacingRight=4;whiteSpace=wrap;overflow=hidden;rotatable=0;points=[[0,0.5],[1,0.5]];portConstraint=eastwest;" vertex="1" parent="78961159f06e98e8-43">
          <mxGeometry y="104" width="260" height="26" as="geometry" />
        </mxCell>
        <mxCell id="78961159f06e98e8-50" value="&lt;font style=&quot;vertical-align: inherit;&quot;&gt;&lt;font style=&quot;vertical-align: inherit;&quot;&gt;&lt;font style=&quot;vertical-align: inherit;&quot;&gt;&lt;font style=&quot;vertical-align: inherit;&quot;&gt;&lt;font style=&quot;vertical-align: inherit;&quot;&gt;&lt;font style=&quot;vertical-align: inherit;&quot;&gt;+ observaciones: varchar&lt;/font&gt;&lt;/font&gt;&lt;/font&gt;&lt;/font&gt;&lt;/font&gt;&lt;/font&gt;" style="text;html=1;strokeColor=none;fillColor=none;align=left;verticalAlign=top;spacingLeft=4;spacingRight=4;whiteSpace=wrap;overflow=hidden;rotatable=0;points=[[0,0.5],[1,0.5]];portConstraint=eastwest;" parent="78961159f06e98e8-43" vertex="1">
          <mxGeometry y="130" width="260" height="26" as="geometry" />
        </mxCell>
        <mxCell id="RVDY1MvP-D8Hmczx_MQF-14" value="&lt;font style=&quot;vertical-align: inherit;&quot;&gt;&lt;font style=&quot;vertical-align: inherit;&quot;&gt;&lt;font style=&quot;vertical-align: inherit;&quot;&gt;&lt;font style=&quot;vertical-align: inherit;&quot;&gt;&lt;font style=&quot;vertical-align: inherit;&quot;&gt;&lt;font style=&quot;vertical-align: inherit;&quot;&gt;+ id_usuario: int&lt;/font&gt;&lt;/font&gt;&lt;/font&gt;&lt;/font&gt;&lt;/font&gt;&lt;/font&gt;" style="text;html=1;strokeColor=none;fillColor=none;align=left;verticalAlign=top;spacingLeft=4;spacingRight=4;whiteSpace=wrap;overflow=hidden;rotatable=0;points=[[0,0.5],[1,0.5]];portConstraint=eastwest;" vertex="1" parent="78961159f06e98e8-43">
          <mxGeometry y="156" width="260" height="26" as="geometry" />
        </mxCell>
        <mxCell id="RVDY1MvP-D8Hmczx_MQF-13" value="&lt;font style=&quot;vertical-align: inherit;&quot;&gt;&lt;font style=&quot;vertical-align: inherit;&quot;&gt;&lt;font style=&quot;vertical-align: inherit;&quot;&gt;&lt;font style=&quot;vertical-align: inherit;&quot;&gt;&lt;font style=&quot;vertical-align: inherit;&quot;&gt;&lt;font style=&quot;vertical-align: inherit;&quot;&gt;&lt;font style=&quot;vertical-align: inherit;&quot;&gt;&lt;font style=&quot;vertical-align: inherit;&quot;&gt;&lt;font style=&quot;vertical-align: inherit;&quot;&gt;&lt;font style=&quot;vertical-align: inherit;&quot;&gt;&lt;font style=&quot;vertical-align: inherit;&quot;&gt;&lt;font style=&quot;vertical-align: inherit;&quot;&gt;+ estado:&amp;nbsp;&amp;nbsp;enum(&#39;Disponible&#39;,&#39;No Disponible&#39;)&amp;nbsp;&lt;/font&gt;&lt;/font&gt;&lt;/font&gt;&lt;/font&gt;&lt;/font&gt;&lt;/font&gt;&lt;/font&gt;&lt;/font&gt;&lt;/font&gt;&lt;/font&gt;&lt;/font&gt;&lt;/font&gt;&lt;span style=&quot;color: rgba(0, 0, 0, 0); font-family: monospace; font-size: 0px; text-wrap-mode: nowrap;&quot;&gt;&lt;font style=&quot;vertical-align: inherit;&quot;&gt;&lt;font style=&quot;vertical-align: inherit;&quot;&gt;&lt;font style=&quot;vertical-align: inherit;&quot;&gt;&lt;font style=&quot;vertical-align: inherit;&quot;&gt;&lt;font style=&quot;vertical-align: inherit;&quot;&gt;&lt;font style=&quot;vertical-align: inherit;&quot;&gt;%3CmxGraphModel%3E%3Croot%3E%3CmxCell%20id%3D%22%22%22%22%20padre%3D%22%22%26lt%3Bfont%20style%3Bvertical-align%3B%26ct%3Bvertical-align%3Bbvertical-align%3Bfont%26cot%3Bbvertical-align%3Bbvertical-align%3Bbvertical-align%3Bbvertical-align%3Bbvertical-align%3Bbvertical-align%3Bbvertical-align%3Bbvertical-align%3Bbvertical-align%3Bbvertical-align%3B%26cot%3B%26cot%3B%26cot%3B%26cot%33B%26cot%3B%26cot%3B%26cot%3B%26ct%3B%26ct%3B%26ct%3B%26ct%3B%26ct%3B%26ct%3B%26ct%3B%26gt%3B%26gt%3B%26gt%3B%26gt%3B%26gt%3B%26gt%3B%26gt%3B%26gt%3B%26gt%3B%26gt%3B%26gt%3B%26gt%3B%26gt%3B%26gt%3B%26gt%3B%26gt%3B%26gt%3B%26gt%3B%26gt%3B%26gt%3B%26gt%3B%26gt3Dleft%3BverticalAlign%3Dtop%3BspacingLight%3D4%3BwhiteSpace%3Dwrap%3Brotable%3D0%3Bpoints%3Db1%2C0.5%5D%2C%5B1%2C0.5%5D%5D%2C%3BportConstraint%3B%22%20vertex%3B%22%20parent%3D%221%22%3CmxGeometría%20x%3D%22%20y%3D%22%22210%22%20ancho%3D%222210%22%20altura%3D%2226%22%20as%3D%222%3E%3C%22geometría%3E%3C%2FmxGraphModelo%3E enum(&#39;Disponible&#39;,&#39;No Disponible&#39;)&amp;nbsp;enum(&#39;Disponible&#39;,&#39;No Disponible&#39;)&lt;/font&gt;&lt;/font&gt;&lt;/font&gt;&lt;/font&gt;&lt;/font&gt;&lt;/font&gt;&lt;/span&gt;" style="text;html=1;strokeColor=none;fillColor=none;align=left;verticalAlign=top;spacingLeft=4;spacingRight=4;whiteSpace=wrap;overflow=hidden;rotatable=0;points=[[0,0.5],[1,0.5]];portConstraint=eastwest;" vertex="1" parent="78961159f06e98e8-43">
          <mxGeometry y="182" width="260" height="26" as="geometry" />
        </mxCell>
        <mxCell id="78961159f06e98e8-51" value="" style="line;html=1;strokeWidth=1;fillColor=none;align=left;verticalAlign=middle;spacingTop=-1;spacingLeft=3;spacingRight=3;rotatable=0;labelPosition=right;points=[];portConstraint=eastwest;" parent="78961159f06e98e8-43" vertex="1">
          <mxGeometry y="208" width="260" height="8" as="geometry" />
        </mxCell>
        <mxCell id="78961159f06e98e8-52" value="+ method(type): type" style="text;html=1;strokeColor=none;fillColor=none;align=left;verticalAlign=top;spacingLeft=4;spacingRight=4;whiteSpace=wrap;overflow=hidden;rotatable=0;points=[[0,0.5],[1,0.5]];portConstraint=eastwest;" parent="78961159f06e98e8-43" vertex="1">
          <mxGeometry y="216" width="260" height="26" as="geometry" />
        </mxCell>
        <mxCell id="78961159f06e98e8-53" value="+ method(type): type" style="text;html=1;strokeColor=none;fillColor=none;align=left;verticalAlign=top;spacingLeft=4;spacingRight=4;whiteSpace=wrap;overflow=hidden;rotatable=0;points=[[0,0.5],[1,0.5]];portConstraint=eastwest;" parent="78961159f06e98e8-43" vertex="1">
          <mxGeometry y="242" width="260" height="26" as="geometry" />
        </mxCell>
        <mxCell id="78961159f06e98e8-56" value="Classname" style="swimlane;html=1;fontStyle=1;align=center;verticalAlign=top;childLayout=stackLayout;horizontal=1;startSize=26;horizontalStack=0;resizeParent=1;resizeLast=0;collapsible=1;marginBottom=0;swimlaneFillColor=#ffffff;rounded=0;shadow=0;comic=0;labelBackgroundColor=none;strokeWidth=1;fillColor=none;fontFamily=Verdana;fontSize=12" parent="1" vertex="1">
          <mxGeometry x="90" y="482.00000000000006" width="160" height="300" as="geometry" />
        </mxCell>
        <mxCell id="78961159f06e98e8-57" value="+ field: type" style="text;html=1;strokeColor=none;fillColor=none;align=left;verticalAlign=top;spacingLeft=4;spacingRight=4;whiteSpace=wrap;overflow=hidden;rotatable=0;points=[[0,0.5],[1,0.5]];portConstraint=eastwest;" parent="78961159f06e98e8-56" vertex="1">
          <mxGeometry y="26" width="160" height="26" as="geometry" />
        </mxCell>
        <mxCell id="78961159f06e98e8-58" value="+ field: type" style="text;html=1;strokeColor=none;fillColor=none;align=left;verticalAlign=top;spacingLeft=4;spacingRight=4;whiteSpace=wrap;overflow=hidden;rotatable=0;points=[[0,0.5],[1,0.5]];portConstraint=eastwest;" parent="78961159f06e98e8-56" vertex="1">
          <mxGeometry y="52" width="160" height="26" as="geometry" />
        </mxCell>
        <mxCell id="78961159f06e98e8-59" value="+ field: type" style="text;html=1;strokeColor=none;fillColor=none;align=left;verticalAlign=top;spacingLeft=4;spacingRight=4;whiteSpace=wrap;overflow=hidden;rotatable=0;points=[[0,0.5],[1,0.5]];portConstraint=eastwest;" parent="78961159f06e98e8-56" vertex="1">
          <mxGeometry y="78" width="160" height="26" as="geometry" />
        </mxCell>
        <mxCell id="78961159f06e98e8-60" value="+ field: type" style="text;html=1;strokeColor=none;fillColor=none;align=left;verticalAlign=top;spacingLeft=4;spacingRight=4;whiteSpace=wrap;overflow=hidden;rotatable=0;points=[[0,0.5],[1,0.5]];portConstraint=eastwest;" parent="78961159f06e98e8-56" vertex="1">
          <mxGeometry y="104" width="160" height="26" as="geometry" />
        </mxCell>
        <mxCell id="78961159f06e98e8-61" value="+ field: type" style="text;html=1;strokeColor=none;fillColor=none;align=left;verticalAlign=top;spacingLeft=4;spacingRight=4;whiteSpace=wrap;overflow=hidden;rotatable=0;points=[[0,0.5],[1,0.5]];portConstraint=eastwest;" parent="78961159f06e98e8-56" vertex="1">
          <mxGeometry y="130" width="160" height="26" as="geometry" />
        </mxCell>
        <mxCell id="78961159f06e98e8-62" value="+ field: type" style="text;html=1;strokeColor=none;fillColor=none;align=left;verticalAlign=top;spacingLeft=4;spacingRight=4;whiteSpace=wrap;overflow=hidden;rotatable=0;points=[[0,0.5],[1,0.5]];portConstraint=eastwest;" parent="78961159f06e98e8-56" vertex="1">
          <mxGeometry y="156" width="160" height="26" as="geometry" />
        </mxCell>
        <mxCell id="78961159f06e98e8-63" value="+ field: type" style="text;html=1;strokeColor=none;fillColor=none;align=left;verticalAlign=top;spacingLeft=4;spacingRight=4;whiteSpace=wrap;overflow=hidden;rotatable=0;points=[[0,0.5],[1,0.5]];portConstraint=eastwest;" parent="78961159f06e98e8-56" vertex="1">
          <mxGeometry y="182" width="160" height="26" as="geometry" />
        </mxCell>
        <mxCell id="78961159f06e98e8-64" value="" style="line;html=1;strokeWidth=1;fillColor=none;align=left;verticalAlign=middle;spacingTop=-1;spacingLeft=3;spacingRight=3;rotatable=0;labelPosition=right;points=[];portConstraint=eastwest;" parent="78961159f06e98e8-56" vertex="1">
          <mxGeometry y="208" width="160" height="8" as="geometry" />
        </mxCell>
        <mxCell id="78961159f06e98e8-65" value="+ method(type): type" style="text;html=1;strokeColor=none;fillColor=none;align=left;verticalAlign=top;spacingLeft=4;spacingRight=4;whiteSpace=wrap;overflow=hidden;rotatable=0;points=[[0,0.5],[1,0.5]];portConstraint=eastwest;" parent="78961159f06e98e8-56" vertex="1">
          <mxGeometry y="216" width="160" height="26" as="geometry" />
        </mxCell>
        <mxCell id="78961159f06e98e8-66" value="+ method(type): type" style="text;html=1;strokeColor=none;fillColor=none;align=left;verticalAlign=top;spacingLeft=4;spacingRight=4;whiteSpace=wrap;overflow=hidden;rotatable=0;points=[[0,0.5],[1,0.5]];portConstraint=eastwest;" parent="78961159f06e98e8-56" vertex="1">
          <mxGeometry y="242" width="160" height="26" as="geometry" />
        </mxCell>
        <mxCell id="78961159f06e98e8-68" value="+ method(type): type" style="text;html=1;strokeColor=none;fillColor=none;align=left;verticalAlign=top;spacingLeft=4;spacingRight=4;whiteSpace=wrap;overflow=hidden;rotatable=0;points=[[0,0.5],[1,0.5]];portConstraint=eastwest;" parent="78961159f06e98e8-56" vertex="1">
          <mxGeometry y="268" width="160" height="26" as="geometry" />
        </mxCell>
        <mxCell id="78961159f06e98e8-130" style="edgeStyle=elbowEdgeStyle;html=1;labelBackgroundColor=none;startFill=0;startSize=8;endArrow=diamondThin;endFill=0;endSize=16;fontFamily=Verdana;fontSize=12;elbow=vertical;" parent="1" source="78961159f06e98e8-82" target="78961159f06e98e8-69" edge="1">
          <mxGeometry relative="1" as="geometry" />
        </mxCell>
        <mxCell id="78961159f06e98e8-69" value="&lt;font style=&quot;vertical-align: inherit;&quot;&gt;&lt;font style=&quot;vertical-align: inherit;&quot;&gt;Pedidos&lt;/font&gt;&lt;/font&gt;" style="swimlane;html=1;fontStyle=1;align=center;verticalAlign=top;childLayout=stackLayout;horizontal=1;startSize=26;horizontalStack=0;resizeParent=1;resizeLast=0;collapsible=1;marginBottom=0;swimlaneFillColor=#ffffff;rounded=0;shadow=0;comic=0;labelBackgroundColor=none;strokeWidth=1;fillColor=none;fontFamily=Verdana;fontSize=12" parent="1" vertex="1">
          <mxGeometry x="360" y="481.9999999999999" width="160" height="304" as="geometry" />
        </mxCell>
        <mxCell id="78961159f06e98e8-70" value="+ field: type" style="text;html=1;strokeColor=none;fillColor=none;align=left;verticalAlign=top;spacingLeft=4;spacingRight=4;whiteSpace=wrap;overflow=hidden;rotatable=0;points=[[0,0.5],[1,0.5]];portConstraint=eastwest;" parent="78961159f06e98e8-69" vertex="1">
          <mxGeometry y="26" width="160" height="26" as="geometry" />
        </mxCell>
        <mxCell id="78961159f06e98e8-71" value="+ field: type" style="text;html=1;strokeColor=none;fillColor=none;align=left;verticalAlign=top;spacingLeft=4;spacingRight=4;whiteSpace=wrap;overflow=hidden;rotatable=0;points=[[0,0.5],[1,0.5]];portConstraint=eastwest;" parent="78961159f06e98e8-69" vertex="1">
          <mxGeometry y="52" width="160" height="26" as="geometry" />
        </mxCell>
        <mxCell id="78961159f06e98e8-72" value="+ field: type" style="text;html=1;strokeColor=none;fillColor=none;align=left;verticalAlign=top;spacingLeft=4;spacingRight=4;whiteSpace=wrap;overflow=hidden;rotatable=0;points=[[0,0.5],[1,0.5]];portConstraint=eastwest;" parent="78961159f06e98e8-69" vertex="1">
          <mxGeometry y="78" width="160" height="26" as="geometry" />
        </mxCell>
        <mxCell id="78961159f06e98e8-74" value="+ field: type" style="text;html=1;strokeColor=none;fillColor=none;align=left;verticalAlign=top;spacingLeft=4;spacingRight=4;whiteSpace=wrap;overflow=hidden;rotatable=0;points=[[0,0.5],[1,0.5]];portConstraint=eastwest;" parent="78961159f06e98e8-69" vertex="1">
          <mxGeometry y="104" width="160" height="26" as="geometry" />
        </mxCell>
        <mxCell id="78961159f06e98e8-75" value="+ field: type" style="text;html=1;strokeColor=none;fillColor=none;align=left;verticalAlign=top;spacingLeft=4;spacingRight=4;whiteSpace=wrap;overflow=hidden;rotatable=0;points=[[0,0.5],[1,0.5]];portConstraint=eastwest;" parent="78961159f06e98e8-69" vertex="1">
          <mxGeometry y="130" width="160" height="26" as="geometry" />
        </mxCell>
        <mxCell id="78961159f06e98e8-76" value="+ field: type" style="text;html=1;strokeColor=none;fillColor=none;align=left;verticalAlign=top;spacingLeft=4;spacingRight=4;whiteSpace=wrap;overflow=hidden;rotatable=0;points=[[0,0.5],[1,0.5]];portConstraint=eastwest;" parent="78961159f06e98e8-69" vertex="1">
          <mxGeometry y="156" width="160" height="26" as="geometry" />
        </mxCell>
        <mxCell id="78961159f06e98e8-77" value="" style="line;html=1;strokeWidth=1;fillColor=none;align=left;verticalAlign=middle;spacingTop=-1;spacingLeft=3;spacingRight=3;rotatable=0;labelPosition=right;points=[];portConstraint=eastwest;" parent="78961159f06e98e8-69" vertex="1">
          <mxGeometry y="182" width="160" height="8" as="geometry" />
        </mxCell>
        <mxCell id="78961159f06e98e8-78" value="+ method(type): type" style="text;html=1;strokeColor=none;fillColor=none;align=left;verticalAlign=top;spacingLeft=4;spacingRight=4;whiteSpace=wrap;overflow=hidden;rotatable=0;points=[[0,0.5],[1,0.5]];portConstraint=eastwest;" parent="78961159f06e98e8-69" vertex="1">
          <mxGeometry y="190" width="160" height="26" as="geometry" />
        </mxCell>
        <mxCell id="78961159f06e98e8-79" value="+ method(type): type" style="text;html=1;strokeColor=none;fillColor=none;align=left;verticalAlign=top;spacingLeft=4;spacingRight=4;whiteSpace=wrap;overflow=hidden;rotatable=0;points=[[0,0.5],[1,0.5]];portConstraint=eastwest;" parent="78961159f06e98e8-69" vertex="1">
          <mxGeometry y="216" width="160" height="26" as="geometry" />
        </mxCell>
        <mxCell id="78961159f06e98e8-80" value="+ method(type): type" style="text;html=1;strokeColor=none;fillColor=none;align=left;verticalAlign=top;spacingLeft=4;spacingRight=4;whiteSpace=wrap;overflow=hidden;rotatable=0;points=[[0,0.5],[1,0.5]];portConstraint=eastwest;" parent="78961159f06e98e8-69" vertex="1">
          <mxGeometry y="242" width="160" height="26" as="geometry" />
        </mxCell>
        <mxCell id="78961159f06e98e8-81" value="+ method(type): type" style="text;html=1;strokeColor=none;fillColor=none;align=left;verticalAlign=top;spacingLeft=4;spacingRight=4;whiteSpace=wrap;overflow=hidden;rotatable=0;points=[[0,0.5],[1,0.5]];portConstraint=eastwest;" parent="78961159f06e98e8-69" vertex="1">
          <mxGeometry y="268" width="160" height="26" as="geometry" />
        </mxCell>
        <mxCell id="78961159f06e98e8-82" value="Classname" style="swimlane;html=1;fontStyle=1;align=center;verticalAlign=top;childLayout=stackLayout;horizontal=1;startSize=26;horizontalStack=0;resizeParent=1;resizeLast=0;collapsible=1;marginBottom=0;swimlaneFillColor=#ffffff;rounded=0;shadow=0;comic=0;labelBackgroundColor=none;strokeWidth=1;fillColor=none;fontFamily=Verdana;fontSize=12" parent="1" vertex="1">
          <mxGeometry x="550" y="482.00000000000006" width="160" height="270" as="geometry" />
        </mxCell>
        <mxCell id="78961159f06e98e8-83" value="+ field: type" style="text;html=1;strokeColor=none;fillColor=none;align=left;verticalAlign=top;spacingLeft=4;spacingRight=4;whiteSpace=wrap;overflow=hidden;rotatable=0;points=[[0,0.5],[1,0.5]];portConstraint=eastwest;" parent="78961159f06e98e8-82" vertex="1">
          <mxGeometry y="26" width="160" height="26" as="geometry" />
        </mxCell>
        <mxCell id="78961159f06e98e8-84" value="+ field: type" style="text;html=1;strokeColor=none;fillColor=none;align=left;verticalAlign=top;spacingLeft=4;spacingRight=4;whiteSpace=wrap;overflow=hidden;rotatable=0;points=[[0,0.5],[1,0.5]];portConstraint=eastwest;" parent="78961159f06e98e8-82" vertex="1">
          <mxGeometry y="52" width="160" height="26" as="geometry" />
        </mxCell>
        <mxCell id="78961159f06e98e8-85" value="+ field: type" style="text;html=1;strokeColor=none;fillColor=none;align=left;verticalAlign=top;spacingLeft=4;spacingRight=4;whiteSpace=wrap;overflow=hidden;rotatable=0;points=[[0,0.5],[1,0.5]];portConstraint=eastwest;" parent="78961159f06e98e8-82" vertex="1">
          <mxGeometry y="78" width="160" height="26" as="geometry" />
        </mxCell>
        <mxCell id="78961159f06e98e8-86" value="+ field: type" style="text;html=1;strokeColor=none;fillColor=none;align=left;verticalAlign=top;spacingLeft=4;spacingRight=4;whiteSpace=wrap;overflow=hidden;rotatable=0;points=[[0,0.5],[1,0.5]];portConstraint=eastwest;" parent="78961159f06e98e8-82" vertex="1">
          <mxGeometry y="104" width="160" height="26" as="geometry" />
        </mxCell>
        <mxCell id="78961159f06e98e8-87" value="+ field: type" style="text;html=1;strokeColor=none;fillColor=none;align=left;verticalAlign=top;spacingLeft=4;spacingRight=4;whiteSpace=wrap;overflow=hidden;rotatable=0;points=[[0,0.5],[1,0.5]];portConstraint=eastwest;" parent="78961159f06e98e8-82" vertex="1">
          <mxGeometry y="130" width="160" height="26" as="geometry" />
        </mxCell>
        <mxCell id="78961159f06e98e8-88" value="+ field: type" style="text;html=1;strokeColor=none;fillColor=none;align=left;verticalAlign=top;spacingLeft=4;spacingRight=4;whiteSpace=wrap;overflow=hidden;rotatable=0;points=[[0,0.5],[1,0.5]];portConstraint=eastwest;" parent="78961159f06e98e8-82" vertex="1">
          <mxGeometry y="156" width="160" height="26" as="geometry" />
        </mxCell>
        <mxCell id="78961159f06e98e8-89" value="+ field: type" style="text;html=1;strokeColor=none;fillColor=none;align=left;verticalAlign=top;spacingLeft=4;spacingRight=4;whiteSpace=wrap;overflow=hidden;rotatable=0;points=[[0,0.5],[1,0.5]];portConstraint=eastwest;" parent="78961159f06e98e8-82" vertex="1">
          <mxGeometry y="182" width="160" height="26" as="geometry" />
        </mxCell>
        <mxCell id="78961159f06e98e8-90" value="" style="line;html=1;strokeWidth=1;fillColor=none;align=left;verticalAlign=middle;spacingTop=-1;spacingLeft=3;spacingRight=3;rotatable=0;labelPosition=right;points=[];portConstraint=eastwest;" parent="78961159f06e98e8-82" vertex="1">
          <mxGeometry y="208" width="160" height="8" as="geometry" />
        </mxCell>
        <mxCell id="78961159f06e98e8-91" value="+ method(type): type" style="text;html=1;strokeColor=none;fillColor=none;align=left;verticalAlign=top;spacingLeft=4;spacingRight=4;whiteSpace=wrap;overflow=hidden;rotatable=0;points=[[0,0.5],[1,0.5]];portConstraint=eastwest;" parent="78961159f06e98e8-82" vertex="1">
          <mxGeometry y="216" width="160" height="26" as="geometry" />
        </mxCell>
        <mxCell id="78961159f06e98e8-94" value="+ method(type): type" style="text;html=1;strokeColor=none;fillColor=none;align=left;verticalAlign=top;spacingLeft=4;spacingRight=4;whiteSpace=wrap;overflow=hidden;rotatable=0;points=[[0,0.5],[1,0.5]];portConstraint=eastwest;" parent="78961159f06e98e8-82" vertex="1">
          <mxGeometry y="242" width="160" height="26" as="geometry" />
        </mxCell>
        <mxCell id="78961159f06e98e8-95" value="Classname" style="swimlane;html=1;fontStyle=1;align=center;verticalAlign=top;childLayout=stackLayout;horizontal=1;startSize=26;horizontalStack=0;resizeParent=1;resizeLast=0;collapsible=1;marginBottom=0;swimlaneFillColor=#ffffff;rounded=0;shadow=0;comic=0;labelBackgroundColor=none;strokeWidth=1;fillColor=none;fontFamily=Verdana;fontSize=12" parent="1" vertex="1">
          <mxGeometry x="740" y="482" width="160" height="168" as="geometry" />
        </mxCell>
        <mxCell id="78961159f06e98e8-96" value="+ field: type" style="text;html=1;strokeColor=none;fillColor=none;align=left;verticalAlign=top;spacingLeft=4;spacingRight=4;whiteSpace=wrap;overflow=hidden;rotatable=0;points=[[0,0.5],[1,0.5]];portConstraint=eastwest;" parent="78961159f06e98e8-95" vertex="1">
          <mxGeometry y="26" width="160" height="26" as="geometry" />
        </mxCell>
        <mxCell id="78961159f06e98e8-97" value="+ field: type" style="text;html=1;strokeColor=none;fillColor=none;align=left;verticalAlign=top;spacingLeft=4;spacingRight=4;whiteSpace=wrap;overflow=hidden;rotatable=0;points=[[0,0.5],[1,0.5]];portConstraint=eastwest;" parent="78961159f06e98e8-95" vertex="1">
          <mxGeometry y="52" width="160" height="26" as="geometry" />
        </mxCell>
        <mxCell id="78961159f06e98e8-98" value="+ field: type" style="text;html=1;strokeColor=none;fillColor=none;align=left;verticalAlign=top;spacingLeft=4;spacingRight=4;whiteSpace=wrap;overflow=hidden;rotatable=0;points=[[0,0.5],[1,0.5]];portConstraint=eastwest;" parent="78961159f06e98e8-95" vertex="1">
          <mxGeometry y="78" width="160" height="26" as="geometry" />
        </mxCell>
        <mxCell id="78961159f06e98e8-102" value="+ field: type" style="text;html=1;strokeColor=none;fillColor=none;align=left;verticalAlign=top;spacingLeft=4;spacingRight=4;whiteSpace=wrap;overflow=hidden;rotatable=0;points=[[0,0.5],[1,0.5]];portConstraint=eastwest;" parent="78961159f06e98e8-95" vertex="1">
          <mxGeometry y="104" width="160" height="26" as="geometry" />
        </mxCell>
        <mxCell id="78961159f06e98e8-103" value="" style="line;html=1;strokeWidth=1;fillColor=none;align=left;verticalAlign=middle;spacingTop=-1;spacingLeft=3;spacingRight=3;rotatable=0;labelPosition=right;points=[];portConstraint=eastwest;" parent="78961159f06e98e8-95" vertex="1">
          <mxGeometry y="130" width="160" height="8" as="geometry" />
        </mxCell>
        <mxCell id="78961159f06e98e8-104" value="+ method(type): type" style="text;html=1;strokeColor=none;fillColor=none;align=left;verticalAlign=top;spacingLeft=4;spacingRight=4;whiteSpace=wrap;overflow=hidden;rotatable=0;points=[[0,0.5],[1,0.5]];portConstraint=eastwest;" parent="78961159f06e98e8-95" vertex="1">
          <mxGeometry y="138" width="160" height="26" as="geometry" />
        </mxCell>
        <mxCell id="78961159f06e98e8-108" value="Classname" style="swimlane;html=1;fontStyle=1;align=center;verticalAlign=top;childLayout=stackLayout;horizontal=1;startSize=26;horizontalStack=0;resizeParent=1;resizeLast=0;collapsible=1;marginBottom=0;swimlaneFillColor=#ffffff;rounded=0;shadow=0;comic=0;labelBackgroundColor=none;strokeWidth=1;fillColor=none;fontFamily=Verdana;fontSize=12" parent="1" vertex="1">
          <mxGeometry x="920" y="481.99999999999983" width="160" height="147" as="geometry" />
        </mxCell>
        <mxCell id="78961159f06e98e8-109" value="+ field: type" style="text;html=1;strokeColor=none;fillColor=none;align=left;verticalAlign=top;spacingLeft=4;spacingRight=4;whiteSpace=wrap;overflow=hidden;rotatable=0;points=[[0,0.5],[1,0.5]];portConstraint=eastwest;" parent="78961159f06e98e8-108" vertex="1">
          <mxGeometry y="26" width="160" height="26" as="geometry" />
        </mxCell>
        <mxCell id="78961159f06e98e8-110" value="+ field: type" style="text;html=1;strokeColor=none;fillColor=none;align=left;verticalAlign=top;spacingLeft=4;spacingRight=4;whiteSpace=wrap;overflow=hidden;rotatable=0;points=[[0,0.5],[1,0.5]];portConstraint=eastwest;" parent="78961159f06e98e8-108" vertex="1">
          <mxGeometry y="52" width="160" height="26" as="geometry" />
        </mxCell>
        <mxCell id="78961159f06e98e8-116" value="" style="line;html=1;strokeWidth=1;fillColor=none;align=left;verticalAlign=middle;spacingTop=-1;spacingLeft=3;spacingRight=3;rotatable=0;labelPosition=right;points=[];portConstraint=eastwest;" parent="78961159f06e98e8-108" vertex="1">
          <mxGeometry y="78" width="160" height="8" as="geometry" />
        </mxCell>
        <mxCell id="78961159f06e98e8-117" value="+ method(type): type" style="text;html=1;strokeColor=none;fillColor=none;align=left;verticalAlign=top;spacingLeft=4;spacingRight=4;whiteSpace=wrap;overflow=hidden;rotatable=0;points=[[0,0.5],[1,0.5]];portConstraint=eastwest;" parent="78961159f06e98e8-108" vertex="1">
          <mxGeometry y="86" width="160" height="26" as="geometry" />
        </mxCell>
        <mxCell id="78961159f06e98e8-120" value="+ method(type): type" style="text;html=1;strokeColor=none;fillColor=none;align=left;verticalAlign=top;spacingLeft=4;spacingRight=4;whiteSpace=wrap;overflow=hidden;rotatable=0;points=[[0,0.5],[1,0.5]];portConstraint=eastwest;" parent="78961159f06e98e8-108" vertex="1">
          <mxGeometry y="112" width="160" height="26" as="geometry" />
        </mxCell>
      </root>
    </mxGraphModel>
  </diagram>
</mxfile>
